<svg xmlns="http://www.w3.org/2000/svg" width="256" height="256" viewBox="0 0 100 100"><rect width="100" height="100" rx="20" fill="#8c34a2"></rect><path d="M75.82 19.00L75.82 19.00Q75.73 19.48 75.44 19.79Q75.16 20.10 74.85 20.40Q74.54 20.71 74.26 21.02Q73.97 21.33 73.93 21.81L73.93 21.81Q73.80 22.82 72.87 23.46Q71.95 24.09 70.72 24.09L70.72 24.09Q69.67 24.09 67.20 23.96Q64.74 23.83 61.58 23.83L61.58 23.83Q58.06 23.83 54.37 24.07Q50.68 24.31 47.17 24.89Q43.65 25.46 40.53 26.38Q37.41 27.30 35.08 28.66Q32.75 30.03 31.39 31.85Q30.03 33.67 30.03 36.05L30.03 36.05Q30.03 38.20 30.80 40.24Q31.56 42.29 32.60 43.98Q33.63 45.67 34.71 46.95Q35.78 48.22 36.40 48.79L36.40 48.79Q36.84 49.19 36.84 49.63L36.84 49.63Q36.84 50.51 34.60 50.51L34.60 50.51Q34.03 50.51 32.99 50.29Q31.96 50.07 30.77 49.54Q29.59 49.01 28.33 48.09Q27.08 47.17 26.07 45.76Q25.06 44.35 24.42 42.42Q23.79 40.49 23.79 37.85L23.79 37.85Q23.79 34.07 25.70 30.53Q27.61 26.99 30.88 24.16Q34.16 21.33 38.55 19.41Q42.95 17.50 47.91 16.89L47.91 16.89Q50.24 16.49 52.68 16.23Q55.12 15.96 57.49 15.79Q59.87 15.61 62.08 15.52Q64.30 15.44 66.19 15.44L66.19 15.44Q69.71 15.44 71.73 15.68Q73.75 15.92 74.74 16.27Q75.73 16.62 75.97 17.04Q76.21 17.46 76.21 17.81L76.21 17.81Q76.21 18.07 76.06 18.34Q75.91 18.60 75.82 19.00ZM56.44 26.64L56.44 26.64Q56.44 26.95 56.35 29.19Q56.26 31.43 56.11 34.90Q55.95 38.38 55.76 42.77Q55.56 47.17 55.36 51.80Q55.16 56.44 54.97 60.96Q54.77 65.49 54.61 69.27Q54.46 73.05 54.37 75.71Q54.28 78.37 54.28 79.25L54.28 79.25Q54.28 79.73 54.17 80.23Q54.06 80.74 53.76 81.20Q53.45 81.66 52.90 82.01Q52.35 82.37 51.43 82.54L51.43 82.54Q50.64 82.67 50 83.00Q49.36 83.33 48.86 83.68Q48.35 84.04 47.96 84.30Q47.56 84.56 47.21 84.56L47.21 84.56Q46.99 84.56 46.90 84.37Q46.81 84.17 46.77 83.88Q46.73 83.60 46.73 83.31Q46.73 83.02 46.73 82.81L46.73 82.81Q46.77 80.08 46.99 73.66L46.99 73.66Q47.08 70.94 47.23 67.14Q47.39 63.34 47.63 58.22Q47.87 53.10 48.18 46.57Q48.48 40.05 48.88 31.87L48.88 31.87Q48.97 29.90 49.58 28.58Q50.20 27.26 51.78 26.91L51.78 26.91Q52.57 26.73 53.21 26.31Q53.85 25.90 54.37 25.46Q54.90 25.02 55.30 24.67Q55.69 24.31 55.95 24.31L55.95 24.31Q56.35 24.31 56.39 25.00Q56.44 25.68 56.44 26.64Z" fill="#fff"></path></svg>