<?xml version="1.0" encoding="UTF-8" standalone="no"?>
<!-- Generator: Adobe Illustrator 25.3.0, SVG Export Plug-In . SVG Version: 6.00 Build 0)  -->

<svg
   version="1.1"
   id="Layer_1"
   x="0px"
   y="0px"
   width="453.79999"
   height="160"
   viewBox="0 0 453.8 160"
   xml:space="preserve"
   sodipodi:docname="84a7a1c3776217773d09a3cbe71c009e.svg"
   xmlns:inkscape="http://www.inkscape.org/namespaces/inkscape"
   xmlns:sodipodi="http://sodipodi.sourceforge.net/DTD/sodipodi-0.dtd"
   xmlns="http://www.w3.org/2000/svg"
   xmlns:svg="http://www.w3.org/2000/svg"><defs
   id="defs21" /><sodipodi:namedview
   id="namedview19"
   pagecolor="#ffffff"
   bordercolor="#666666"
   borderopacity="1.0"
   inkscape:showpageshadow="2"
   inkscape:pageopacity="0.0"
   inkscape:pagecheckerboard="0"
   inkscape:deskcolor="#d1d1d1" />
<style
   type="text/css"
   id="style2">
	.st0{fill:#FFFFFF;}
</style>
<g
   id="g6"
   transform="translate(-94.9,-342)">
	<path
   class="st0"
   d="m 124.5,421.2 45.7,50.3 9.2,18.3 -19.8,12.2 -7.6,-16.8 -57.1,-66.3 51,-35.8 13.7,15.2 z m 88.3,-11.3 -44.8,-52.7 -5.2,-15.2 -21.5,6.5 8.4,17 32.8,39 -29.7,21.8 15.9,17.7 z"
   id="path4" />
</g>
<path
   class="st0"
   d="m 161.2,22.1 33.7,21.3 v 9.7 l -20.4,18.5 20.4,15 v 11.7 l -35.4,20.7 -4.3,-8.4 V 36.5 L 150.9,28 Z M 188.1,48.4 165.4,34.8 165,67.3 Z m 0,43.9 -22.7,-16.1 v 28.2 l 4.3,-0.7 z"
   id="path8" />
<path
   class="st0"
   d="m 229.5,100.8 3,-5.4 16.2,9 -2.1,-61.1 -29.2,21.8 0.2,24.9 h -9.9 V 60.5 l 40,-28.2 6.8,7.9 3,67.3 -6.1,6.9"
   id="path10" />
<path
   class="st0"
   d="M 270.9,98 V 36.4 l -4.3,-8.5 9.9,-6 4.5,8.7 v 50.1 l 38.5,-40.7 -0.1,64.4 4.4,8.7 -10.2,5.9 -4.3,-8.5 V 57.8 Z"
   id="path12" />
<path
   class="st0"
   d="M 379.5,117.2 331.8,71 l 48.8,-40.9 6.4,8.7 -39.5,33.1 38.8,37.4 c 0.1,0.2 -0.9,1.5 -3.2,4.1 -0.9,0.8 -2.1,2 -3.6,3.8 z"
   id="path14" />
<path
   class="st0"
   d="m 408.9,30.6 v 10.2 l 30.4,18.5 V 36.5 L 435,28 l 9.9,-6 4.5,8.7 v 73.8 l 4.4,8.7 -10.2,5.9 -4.3,-8.5 V 93.7 L 408.9,76.4 v 28.2 l 4.5,8.7 -10.2,5.9 -4.3,-8.5 V 36.6 l -4.3,-8.5 9.9,-6 z m 30.4,40.5 -30.4,-17.4 v 9.6 l 30.4,18.5 z"
   id="path16" />
</svg>
