<?xml version="1.0" encoding="UTF-8" standalone="no"?>
<!-- Generator: Adobe Illustrator 25.3.0, SVG Export Plug-In . SVG Version: 6.00 Build 0)  -->

<svg
   version="1.1"
   id="Layer_1"
   x="0px"
   y="0px"
   width="336.20001"
   height="58.799999"
   viewBox="0 0 336.20002 58.799998"
   xml:space="preserve"
   sodipodi:docname="315949ff623122869508aabcd20d62f0.svg"
   xmlns:inkscape="http://www.inkscape.org/namespaces/inkscape"
   xmlns:sodipodi="http://sodipodi.sourceforge.net/DTD/sodipodi-0.dtd"
   xmlns="http://www.w3.org/2000/svg"
   xmlns:svg="http://www.w3.org/2000/svg"><defs
   id="defs35" /><sodipodi:namedview
   id="namedview33"
   pagecolor="#ffffff"
   bordercolor="#666666"
   borderopacity="1.0"
   inkscape:showpageshadow="2"
   inkscape:pageopacity="0.0"
   inkscape:pagecheckerboard="0"
   inkscape:deskcolor="#d1d1d1" />
<style
   type="text/css"
   id="style2">
	.st0{fill:#FFFFFF;}
</style>
<g
   id="g30"
   transform="translate(-121.6,-255.6)">
	<path
   class="st0"
   d="m 121.8,270.8 0.2,0.2 -0.1,0.1 h -0.1 l -0.2,-0.2 0.1,-0.1 z m 1.5,-13.9 1.4,0.6 v 0.1 l 0.1,-0.1 h 0.1 l 0.1,0.1 h 0.1 l 0.4,-0.1 0.1,0.1 v -0.5 h 0.2 v 0.6 l -0.2,0.2 h -0.9 c -1,-0.4 -1.5,-0.7 -1.5,-0.9 z m 2.3,3.6 0.1,0.1 c -0.2,0.4 -0.4,1.3 -0.6,2.5 0.3,0 0.5,0.7 0.7,2.2 v 0.4 l -0.2,0.2 -0.1,-0.1 0.1,-0.6 v -0.1 l -0.4,-0.1 0.1,-0.4 c -0.1,-0.9 -0.2,-1.3 -0.4,-1.3 0,0.4 -0.1,0.6 -0.2,0.6 -0.3,-0.2 -0.5,-0.4 -0.5,-0.7 l 0.1,-0.1 0.1,0.1 h 0.2 l 0.2,-1.1 v -1.3 c 0.2,-0.1 0.4,-0.3 0.8,-0.3 z m 0.2,26.6 h 0.1 l 0.2,0.2 -0.1,0.1 h -0.1 l -0.1,-0.1 z m 0.4,6.6 0.1,0.1 v 0.4 h -0.1 L 126,294 Z m 2.1,-37.1 0.1,0.1 v 0.4 l -1.1,0.8 h -0.7 v -0.1 c 0.5,-0.6 1.1,-1 1.7,-1.2 z m -1.2,21.5 0.1,0.1 v 0.1 l -0.4,0.2 h -0.2 v -0.1 c 0,-0.1 0.2,-0.2 0.5,-0.3 z m 0.6,-22.5 0.2,0.2 -0.5,0.4 H 127 V 256 Z m 0.1,3.6 h 0.2 c -0.1,0.5 -0.2,0.8 -0.4,0.8 l -0.1,-0.1 v -0.5 z m 0,17.1 h 0.4 v 0.2 h -0.4 z m 0.5,-17.9 h 0.5 l -0.1,0.6 -0.4,-0.4 z m 0.5,6 h 0.1 l 0.2,0.2 -0.1,0.1 v 0 l -0.1,-0.1 v -0.2 z m 0.5,7.7 0.1,0.1 v 0.1 l -0.2,0.2 -0.1,-0.1 v -0.1 z m 0,14.8 0.2,0.2 -0.2,0.2 -0.2,-0.4 0.1,-0.1 h 0.1 z M 129.2,260 h 0.4 l 0.2,0.2 -0.1,0.1 -0.5,-0.1 z m 0.7,-4.2 0.1,0.1 v 0.1 l -0.4,0.4 h -0.2 v -0.1 z m 24,1.9 1.1,0.2 h 3.4 c 0.2,0 0.2,0.1 0.2,0.4 l 0.6,-0.2 0.2,0.2 0.8,-0.1 1.8,0.1 0.1,-0.1 h 0.1 l 0.8,0.2 0.1,-0.1 h 2.3 l 1.5,0.1 1.3,-0.1 0.1,0.1 v 0.1 l -0.1,0.1 h -0.5 l -2.3,-0.1 -2,0.4 -3,-0.1 -1.6,0.1 v 0.1 h 1.3 v 0.2 h -2.2 l -0.5,-0.5 0.1,-0.1 0.1,0.1 h 0.5 l 0.8,-0.1 v -0.1 h -0.6 l -1.9,0.1 -0.4,-0.2 -2.3,0.1 h -0.6 l -5.9,-0.1 c -0.6,0.1 -1,0.2 -1.2,0.4 h -4 c -0.2,0.2 -0.5,0.2 -0.9,0.2 l 0.2,0.4 v 0.1 l -0.2,0.2 c -0.2,-0.4 -0.6,-0.6 -1.1,-0.6 h -0.1 c 0,0.2 -0.1,0.4 -0.2,0.4 l -0.6,-0.4 h -2.3 l -3.2,0.2 h -0.7 l -0.4,0.2 h -2.6 l -0.6,-0.2 v -0.2 h 0.1 l 2.2,0.1 h 0.2 v -0.1 h -0.5 v -0.2 h 0.4 l 1.4,0.1 v -0.2 l 0.6,0.1 4.9,-0.2 v -0.1 h -1.3 v -0.2 h 0.1 l 2.3,-0.1 3,0.4 h 1.4 c 0.3,-0.2 0.6,-0.4 0.9,-0.4 v -0.4 h 1.4 l 6.7,0.1 c 0.5,-0.2 0.6,-0.3 0.8,-0.3 z m -24,-0.8 0.4,0.4 -0.1,0.1 -0.5,-0.4 0.1,-0.1 z m 0,16 0.1,0.1 v 0.1 l -0.1,0.1 h -0.1 l -0.1,-0.1 V 273 l 0.1,-0.1 z m 0.1,18.1 0.1,0.1 v 0.1 l -0.4,0.2 -0.1,-0.1 v -0.1 z m 0.7,-28.6 0.2,0.6 -0.1,0.1 h -0.1 c -0.4,-0.1 -0.6,-0.2 -0.6,-0.4 z m 0,30.1 0.1,0.1 v 0.1 c 0,0.2 -0.2,0.3 -0.6,0.4 V 293 Z m -0.1,-3.3 h 0.5 v 0.2 h -0.5 z m 0.5,-11.8 h 0.1 v 0.4 L 131,278 h -0.2 v -0.1 c 0,-0.4 0.2,-0.5 0.3,-0.5 z m 1.5,-8.2 -0.4,0.4 h -0.5 v -0.2 z m -0.5,26.8 0.1,0.1 v 0.6 H 132 l -0.1,-0.6 0.1,-0.1 z m 44.4,-37 c 2,0.1 2.9,0.8 2.9,2 v 0.5 c 0,1.7 -1.7,3.5 -5,5.4 -0.5,0 -2.4,0.4 -5.6,1.2 l -8.7,0.6 h -3.6 c -0.6,0.2 -1.2,0.4 -1.8,0.4 3.4,3 5.2,4.8 5.3,5.2 0,0.2 0.3,0.5 0.9,1.2 0,0.4 0.5,1.5 1.4,3.2 0.8,0.9 1.2,1.4 1.2,1.5 l 1.2,4.1 v 2.7 c 0,4 -0.7,7 -2,8.9 -0.3,0.8 -1.1,1.9 -2.2,3.5 0,0.7 -1.4,1.9 -4.2,3.5 -2.8,1.4 -5.3,2.1 -7.6,2.1 0.2,0.3 0.2,0.7 0.2,1.3 v 0.2 l -0.6,0.7 h 0.2 l 0.4,-0.2 0.5,0.4 -0.4,0.4 -0.2,-0.2 h -0.5 v 0.1 l 0.2,0.4 v 0.1 l -0.2,0.4 v 0.4 l 0.1,-0.1 h 0.1 c 0.1,0.5 0.2,0.7 0.4,0.7 v -0.2 h 0.2 v 0.4 c 0,0.2 -0.1,0.2 -0.4,0.2 v 0.1 c 0.3,0 0.5,0.2 0.5,0.4 v 0.1 l -0.2,0.2 c -0.2,0 -0.2,0.3 -0.2,0.8 l -0.2,0.2 0.1,0.6 v 0.8 l -0.4,1.1 h -0.1 l -0.2,-0.2 v -0.4 l 0.2,-0.4 v -0.5 C 148,312.3 147.8,312 147.4,312 H 147 l -0.4,0.2 h -0.2 l -0.2,-0.2 v -0.1 h 0.1 l 0.1,0.1 h 0.1 l 0.4,-0.4 0.9,0.2 0.2,-0.9 -0.4,-0.4 h 0.4 v -0.2 c 0,-0.3 -0.2,-0.5 -0.5,-0.8 v -0.2 l 0.2,-0.2 0.1,0.1 v -0.9 c -0.2,-0.4 -0.4,-0.7 -0.7,-0.7 V 307 l 0.1,-0.1 0.1,0.1 h 0.4 v -0.1 h -0.4 l 0.2,-0.2 0.4,0.1 v -0.1 l 0.2,-1.1 0.1,0.1 h 0.2 l -0.2,-0.9 h -1.9 c -6.5,0 -10.8,-3.5 -12.9,-10.5 l -0.1,-2.8 c 0,-4.9 2,-8.5 6.1,-10.8 1.4,-0.5 3.1,-0.7 4.9,-0.7 h 0.1 c 1.9,0 3.9,0.6 5.9,1.9 1.5,1.7 2.4,3.3 2.8,4.6 v 0.4 l 0.1,3.5 c -0.1,1 -0.9,2.5 -2.3,4.5 l -1.1,0.5 v 0.8 h -0.2 l -0.1,-0.6 -0.4,0.1 0.1,0.6 v 0.8 l 0.2,0.4 -0.1,0.1 v 0.1 l 0.1,0.5 -0.5,0.4 0.1,0.6 h -0.1 l -0.2,-0.2 v -0.8 l -0.4,-1.5 h -0.1 v 0.2 H 148 l 0.1,-0.8 h -2.6 c -1.5,-0.2 -3,-0.7 -4.5,-1.8 -1.3,-1.3 -2,-2.8 -2,-4.5 v -1.1 c 1.6,-2.8 3.2,-4.2 4.8,-4.2 h 1.1 c 1.5,0 2.5,0.6 3.2,1.9 v 0.1 h 0.1 v -2.1 l 0.4,-0.9 c -1.9,-1.3 -3.9,-2 -5.9,-2 -2.1,0 -4.1,1.4 -6.2,4.1 -0.9,1.5 -1.3,3.2 -1.3,5.2 0,2.6 0.4,4.6 1.3,6 h 0.4 v 0.2 h -0.2 v 0.1 c 2.2,4.3 5.9,6.4 11,6.4 h 0.1 c 4,0 7,-2.3 8.9,-6.9 0.4,-0.4 1.2,-2.1 2.1,-5.2 V 291 h 0.2 l 0.1,-0.8 -0.2,-8.3 -0.9,-2.2 h -0.1 l 0.1,-0.6 c -0.7,-2.3 -1.5,-3.8 -2.2,-4.3 l 0.1,-0.4 h -0.1 l -0.4,0.1 v -0.1 c -2.1,-2.4 -4,-3.9 -6,-4.5 -1.4,-0.8 -3.9,-1.2 -7.5,-1.2 -0.9,0.1 -2.7,1 -5.3,2.7 -2,3.3 -3,5.1 -3,5.6 0,0.5 0.4,0.7 1.3,0.7 0.4,-0.1 0.6,-0.4 0.8,-0.7 v -0.6 l -0.2,-0.4 -0.1,0.1 h -0.1 l -0.2,-0.2 0.4,-0.2 h 0.6 c 0.2,0.1 0.4,0.3 0.4,0.7 v 0.5 c -0.2,1.1 -0.8,1.6 -1.9,1.6 l -0.1,0.1 H 134 c -0.7,0 -1.3,-0.5 -1.8,-1.4 v -0.1 c 0,-1.8 0.7,-4 2.1,-6.6 2.4,-2.7 4.2,-4 5.5,-4 3.8,-1.3 6.3,-2 7.6,-2 0,-0.1 0.4,-0.2 1.2,-0.4 l 11.6,0.2 3,-0.1 1.6,0.2 8.1,-0.2 c 1.1,-0.5 2.6,-0.9 4.3,-1.4 0.6,-0.4 0.9,-0.9 0.9,-1.3 v -0.2 c 0,-0.6 -0.5,-1.1 -1.4,-1.3 h -0.5 c -1,0 -1.5,0.4 -1.6,1.2 0,0.4 0.4,0.7 1.3,0.9 v 0.2 h 0.1 c -1.2,-0.2 -1.8,-0.6 -1.8,-1.3 v -0.1 c 0,-1 0.8,-1.7 2.3,-1.9 z m -43.2,-0.9 h 1.1 v 0.2 l -0.8,0.1 h -0.5 v -0.1 z m 0.5,10.2 v 0.1 l -0.2,0.2 -0.1,-0.1 v -0.1 l 0.1,-0.1 z m 0.9,3.3 v 0.2 h 0.4 v -0.2 z m 1.2,-7.7 0.1,0.1 v 0.1 l -0.1,0.1 h -0.1 l -0.1,-0.1 V 264 l 0.1,-0.1 z m -0.1,2.4 h 0.4 v 0.2 h -0.4 z m 0.4,-5.9 h 0.7 v 0.2 h -0.7 z m 0.7,-3.3 h 0.1 l 0.2,0.2 -0.1,0.1 H 137 l -0.1,-0.1 z m 0,1.3 h 0.5 v 0.2 h -0.5 z m 1.1,6 h 0.8 v 0.2 H 138 Z m 1.2,33 h 0.2 v 0.4 h -0.2 z m 0.9,-38.7 v 0.1 h 0.5 v -0.1 z m 0.4,14.8 h 0.1 l 0.4,0.4 -0.2,0.2 -0.2,-0.4 v -0.2 z m 9,10.5 -0.2,1.4 c 0.2,0 0.3,0.4 0.4,1.3 l -0.1,0.5 h -0.1 l -0.1,-0.1 h -0.1 l -0.1,0.7 0.4,-0.2 0.1,0.1 v 0.4 c 0,2 -0.1,3 -0.4,3 l -0.1,-0.5 h -0.1 c 0,1.2 -1,2 -2.9,2.6 h -0.8 c -2.1,0 -3.2,-0.9 -3.2,-2.8 v -0.6 c 0.4,-1 0.9,-1.8 1.5,-2.3 h 0.7 c 1.6,0.2 2.5,0.9 2.5,2 v 0.5 c -0.3,0.8 -0.8,1.2 -1.6,1.2 h -0.2 l -0.7,-0.6 0.2,-0.2 c 0.1,0.3 0.4,0.5 0.8,0.5 0.3,-0.1 0.5,-0.4 0.5,-0.8 V 290 c 0,-0.6 -0.4,-1 -1.1,-1.2 h -0.1 c -0.8,0 -1.2,0.5 -1.4,1.6 0.4,0.9 0.9,1.5 1.6,1.9 h 1.2 c 1.1,-0.9 1.6,-1.7 1.6,-2.5 v -1.2 c 0,-1.2 -0.5,-2 -1.5,-2.3 l -2,-0.5 c -2,1.1 -2.9,2.5 -2.9,4.1 v 0.6 c 1,2.1 2.2,3.3 3.8,3.8 h 2 c 1.2,-0.2 1.9,-0.6 1.9,-1.2 l 0.2,-0.4 v -1.2 l 0.2,-0.2 0.1,0.1 v 0.8 l 0.1,1.2 h 0.1 c 0.5,0 1.1,-0.7 1.8,-2.1 l 0.6,-2.9 c -0.1,0 -0.4,-0.8 -0.9,-2.5 z m -8.3,-18.9 h 1.1 v 0.2 h -1.1 z m 0.4,-8.6 0.1,0.1 v 0.1 l -0.1,0.1 h -0.1 l -0.1,-0.1 v -0.1 l 0.1,-0.1 z m 0.6,1.4 h 2 v 0.2 h -2 z m 1.3,1.5 h 0.2 v 0.6 h -0.2 z m 0.9,-1.6 h 0.4 v 0.2 h -0.4 z m 0,8.4 v 0.1 h 0.5 v -0.1 l -0.2,-0.2 z m 0.6,-7 0.2,0.2 -0.1,0.1 h -0.4 v -0.1 z m -0.2,7.5 v 0.4 h 0.1 l 0.2,-0.2 v -0.1 h -0.3 z m 0.8,-9.8 0.1,0.1 v 0.1 l -0.1,0.1 h -0.1 l -0.1,-0.1 V 257 l 0.1,-0.1 z m 0,3.2 0.1,0.1 v 0.2 h -0.1 l -0.2,-0.2 0.1,-0.1 z m 1.2,-1.4 0.6,0.1 0.7,-0.1 0.1,0.1 h 0.1 l 0.1,-0.1 h 0.1 l 0.4,0.1 v 0.2 c -0.3,0 -0.6,0.2 -0.9,0.5 l -0.6,-0.1 H 146 l -0.2,-0.2 0.2,-0.2 0.9,0.2 h 0.8 v -0.1 c -0.7,0 -1.1,-0.1 -1.1,-0.2 z m 0.2,-2.5 0.1,0.1 v 0.1 l -0.2,0.2 h -0.1 l -0.2,-0.2 v -0.1 z m 0.4,20 0.1,0.1 v 0.1 l -0.4,0.2 H 147 v -0.1 z M 147.1,258 v 0.1 h 1.4 V 258 Z m 0.3,2.5 h 0.1 v 0.2 h -0.4 z m 0.1,49.2 0.2,0.2 v 0.2 l -0.5,0.1 -0.1,-0.1 V 310 Z m -0.1,-43.5 v 0.2 h 0.4 v -0.2 z m 1.3,35.3 h 0.2 l 0.1,0.5 -0.1,0.1 h -0.1 l -0.1,-0.1 z m 0.1,-5.9 v 0.1 l 0.2,0.5 h 0.1 v -0.6 z m 4.3,-36.6 0.2,0.4 c 1.8,0.3 3.8,0.5 6.1,0.5 l 0.1,0.1 v 0.1 l -0.1,0.1 h -0.1 l -3.5,-0.1 0.2,0.2 h 0.9 v 0.2 h -2.5 l -1.1,-0.1 -0.7,0.1 v -0.2 h 0.2 v -0.1 l -1.2,-0.4 h -0.1 v 0.1 h 0.2 l -0.2,0.2 h -2.6 l -0.2,-0.2 0.1,-0.1 h 0.1 l 0.7,0.1 0.7,-0.2 0.2,0.2 h 0.5 v -0.1 h -0.4 v -0.2 l 1.1,-0.2 0.1,0.1 h 0.1 z m -4.1,20.2 h 0.2 l 0.1,0.7 c -0.1,0.5 -0.2,0.8 -0.4,0.8 l -0.1,-0.1 v -0.1 l 0.1,-0.7 -0.1,-0.1 v -0.1 z m 0.1,20.4 0.1,0.1 v 0.1 l -0.2,0.2 -0.1,-0.1 v -0.1 z m 0,0.9 0.1,0.1 v 0.1 l -0.2,0.2 -0.1,-0.1 v -0.1 z m 0,-22.7 h 0.1 l 0.2,0.2 v 0.5 l -0.2,0.2 -0.1,-0.4 0.1,-0.1 v -0.1 z m 1.1,20.5 0.1,0.1 v 0.1 l -0.1,0.1 h -0.1 l -0.1,-0.1 v -0.1 l 0.1,-0.1 z m 0,-40.2 v 0.1 h 0.8 v -0.1 z m 2.2,7.8 v 0.2 l 0.5,0.1 0.1,-0.1 v -0.2 z m 1.6,-3.9 0.1,0.1 v 0.1 l -0.1,0.1 h -0.2 v -0.1 z m 0.5,5.4 v 0.4 h 0.2 v -0.4 z m 0.2,-1.5 v 0.4 h 0.4 v -0.1 l -0.2,-0.2 h -0.2 z m 0.8,-3.5 h 0.6 v 0.2 h -0.6 z m 2.1,14.5 v 0.4 h 0.4 v -0.1 l -0.2,-0.2 h -0.2 z m 0.1,-18.8 v 0.1 h 0.6 v -0.1 z m 1.5,39.7 v 0.4 h 0.2 v -0.4 z m 1.6,-34.6 0.2,0.5 -0.1,0.1 h -0.1 c 0,-0.2 -0.1,-0.2 -0.4,-0.2 v -0.2 z m 0.4,-4.1 0.4,0.1 v 0.2 h -0.2 l -0.2,-0.2 z m 2.2,13.5 h 0.4 v 0.2 h -0.4 z m 0.4,-5.2 v 0.4 h 0.2 v -0.4 z m 0.9,-1.3 v 0.1 h 0.2 l 0.2,-0.2 v -0.1 h -0.2 z m 1.1,10.1 0.1,0.1 v 0.7 h -0.2 l -0.1,-0.7 0.1,-0.1 z m 0.8,-2.5 v 0.1 l -0.2,0.2 -0.2,-0.2 0.1,-0.1 z m 0.7,5.7 v 0.1 l -0.2,0.2 -0.1,-0.1 v -0.1 l 0.1,-0.1 z m 0,0.4 0.1,0.1 v 0.1 l -0.1,0.1 h -0.1 l -0.1,-0.1 v -0.1 l 0.1,-0.1 z m 3.6,-16.7 h 0.1 v 0.1 c -0.2,0.3 -0.4,0.5 -0.7,0.5 l -0.1,-0.1 v -0.1 z m -0.3,-5 h 0.1 l 0.4,0.4 H 171 l -0.4,-0.1 z m 2.7,15.6 0.1,0.1 v 0.2 l -0.1,0.1 0.1,0.1 v 0.1 l -0.2,0.2 -0.2,-0.2 h 0.2 v -0.1 H 173 l -0.5,0.1 -0.4,-0.4 z"
   id="path4" />
	<path
   class="st0"
   d="m 176.8,278.2 c 0.2,0 0.4,0.4 0.7,1.2 0.2,0 0.3,0.1 0.3,0.4 h 0.5 l -0.1,-0.6 0.1,-0.6 v -0.1 l -0.1,0.1 H 178 v -0.4 h 0.3 c 0.2,0 0.3,0.2 0.3,0.5 l 0.4,-0.4 c 1.9,0.6 2.9,1.1 3,1.6 2.6,2.1 4,4.9 4,8.4 v 0.5 c 0,2.1 -0.4,4 -1.2,5.7 h -0.3 v -0.3 h -0.1 l -0.5,1.1 0.3,0.3 -1.9,2.3 v -0.6 H 182 c 0,0.8 -0.7,1.6 -2,2.3 -1.5,1.3 -3.6,1.9 -6.3,1.9 -3.2,0 -5.8,-1.6 -7.6,-4.9 l 0.1,-0.7 -0.1,0.1 H 166 c -0.3,-0.3 -0.4,-0.7 -0.4,-1 l 0.4,-0.1 v -0.4 h -0.3 v 0.3 h -0.1 c -0.4,0 -0.6,-1.3 -0.8,-3.8 v -1 c 0,-2.4 0.6,-4.4 1.8,-6 l 0.1,0.1 c 0,-0.3 0.8,-1 2.3,-2.3 0.6,-0.7 0.9,-1.3 0.9,-1.9 2,-1 4.3,-1.7 6.9,-1.7 z m -11.9,0.7 0.3,0.3 v 0.1 l -0.3,-0.3 z m 1.2,-0.9 v 0.1 l -0.4,0.4 -0.3,-0.3 z m -0.3,15.1 v 0.4 h 0.3 v -0.1 z m 3.1,-12.5 0.5,0.3 v 0.3 l -0.9,0.7 -0.3,0.3 H 168 c 0.1,-0.6 0.4,-0.9 0.8,-0.9 l -0.1,-0.1 v -0.1 z m -0.9,5.6 v 0.3 l 0.4,0.4 h 0.1 v -0.3 l -0.4,-0.4 z m 0.9,7.9 v 0.3 h 0.4 v -0.3 z m 0.3,-1.2 v 0.4 h 0.4 v -0.4 z m 5.6,-12.5 -0.1,0.4 c -0.5,-0.1 -0.8,-0.1 -0.8,-0.3 -1.5,0.3 -2.3,0.8 -2.3,1.3 -0.2,0 -0.5,0.5 -0.9,1.5 l -0.1,0.1 0.1,0.4 c -0.7,0.7 -1.1,2.3 -1.1,4.9 l 0.3,3.3 h -0.3 v 0.4 l 0.1,-0.1 h 0.3 v 0.1 l 0.3,1.6 h -0.4 c 0.4,0.4 0.7,0.8 0.9,1.3 l -0.1,0.1 v 0.1 c 0.3,0 0.6,0.4 0.7,1.2 1.1,1.4 2.1,2.1 3,2.2 h 1.5 c 1.1,0 2.8,-1.4 5,-4.1 l -0.3,-0.3 v -0.4 l 0.4,-0.1 0.1,0.1 v -0.7 h -0.3 v -0.1 l 0.3,-0.4 -0.4,-0.1 v -1.4 l 0.1,-2.4 -0.1,-1.2 h -0.3 v -1.2 h 0.3 v -0.3 c -0.4,0 -0.8,-0.8 -1.1,-2.3 l 0.1,-0.5 h -0.1 l -0.1,0.1 h -0.1 l -0.1,-0.1 v -0.8 c -0.4,0 -1,-0.4 -1.6,-1.2 -0.8,-0.4 -1.6,-0.7 -2.6,-1 v -0.3 h -0.3 z m -3.7,-4.5 h 0.4 v 0.3 h -0.4 z m 5.9,3.7 0.1,0.1 c -0.1,0.4 -0.2,0.5 -0.3,0.5 h -0.1 c 0,-0.4 0.1,-0.6 0.3,-0.6 z m 0.6,4 0.3,0.3 -0.1,0.1 v 0.1 l -0.6,-0.4 0.1,-0.1 z m -0.1,5.9 0.1,0.1 v 0.1 l -0.1,0.1 h -0.1 l -0.1,-0.1 v -0.1 l 0.1,-0.1 z m -0.1,-11.3 h 0.1 l 0.3,0.3 v 0.1 z m 0.2,7.2 0.3,0.5 -0.1,0.1 h -0.1 l -0.3,-0.4 z m 0.3,-8 0.1,0.1 v 0.3 h -0.1 l -0.3,-0.3 0.1,-0.1 z m 0,10 h 0.3 l -0.1,0.7 h -0.3 z m 0.7,-8.3 v 0.3 h 0.1 l 0.3,-0.3 z m 0.7,14.7 h 0.3 v 0.4 l -0.3,-0.3 z m 0.8,9.8 h 0.3 v 0.4 l -0.3,0.3 h -0.4 v -0.1 z m 0.2,2.9 0.1,0.1 v 0.1 l -0.2,0.2 h -0.1 v -0.2 z m 0.1,3.2 0.2,0.6 h -0.2 l -0.2,-0.5 0.1,-0.1 z m 0.5,-33.8 h 0.3 v 0.4 h 0.3 l 0.1,-0.1 h 0.1 l 0.1,0.1 v 0.8 h -0.3 c 0,-0.4 -0.3,-0.6 -0.9,-0.6 v -0.1 z m -0.3,10.2 v 0.3 h 0.4 v -0.3 z m 0.4,-4.5 -0.1,0.1 v 0.3 l 0.8,0.4 0.3,-0.7 h -0.1 z m 0,20.1 c 0.8,0 1.2,0.1 1.2,0.3 l -0.1,0.4 h -0.3 c 0,-0.3 -0.3,-0.4 -0.8,-0.4 z m 0.8,-1.1 h 0.1 l 0.1,0.1 h 0.1 l 0.1,-0.1 v 0.3 l -0.5,0.1 v -0.4 z m 0.5,2.8 h 0.3 v 0.8 l -0.3,0.3 -0.1,-0.1 v -0.1 z m 0.5,-32.7 h 0.1 l 0.3,0.3 -0.1,0.2 -0.1,-0.2 h -0.1 l -0.2,0.2 h -0.1 V 271 Z m -0.3,26.1 0.3,0.3 0.1,-0.1 v -0.1 h -0.4 z m 0.4,-27.1 0.1,0.1 v 0.2 l -0.1,0.1 h -0.1 l -0.2,-0.1 v -0.2 l 0.2,-0.1 z m 0.3,30.2 h 0.3 l -0.1,0.1 v 0.1 l 0.3,0.4 v 0.3 l -0.5,-0.6 z m 0.3,1.4 h 0.3 v 0.1 l -0.1,0.1 0.1,0.1 v 0.3 l -0.3,0.3 h -0.1 l -0.3,-0.3 0.4,-0.1 -0.1,-0.1 z m 0,-23.4 c 0.2,0 0.3,0.3 0.4,0.9 l -0.1,0.1 h -0.1 l -0.4,-0.8 z m 0.7,21.9 0.1,0.1 v 0.1 l -0.5,0.5 v -0.4 z m 0.1,-3.3 0.1,0.1 v 0.1 l -0.3,0.3 -0.1,-0.1 v -0.1 z m -0.1,-25.6 h 0.1 l 0.3,0.3 -0.2,0.1 h -0.1 l -0.1,-0.1 z m 0.5,28.5 c 0.4,0.1 0.6,0.3 0.6,0.4 v 0.3 h -0.1 l -0.5,-0.6 z"
   id="path6" />
	<path
   class="st0"
   d="m 210.6,274.6 h 0.6 l 4,3.8 0.6,1.6 0.1,1.2 v 0.4 c -0.2,2.7 -0.5,4.2 -1,4.4 l -1.2,2.4 0.5,0.1 0.2,-0.2 h 0.1 l 0.4,0.2 c 0,-0.2 0.1,-0.4 0.3,-0.4 l 0.1,0.4 h 1.1 c 0.2,0.2 0.5,0.2 0.8,0.2 v 0.2 h -0.1 l -2.4,-0.2 -0.2,0.2 h -0.8 l -0.1,-0.1 h -0.1 c -0.7,1.4 -1.4,2.6 -2.1,3.5 -1.4,2.7 -2.2,4.2 -2.2,4.4 l -0.8,0.8 -0.1,-0.1 H 208 l -0.1,0.6 -0.1,-0.1 h -0.1 l -0.5,0.2 v 0.1 l 0.5,0.6 v 0.2 l -0.1,0.1 c -0.5,0.1 -0.8,0.4 -0.8,0.9 l 0.1,0.4 h -0.4 v 0.3 h 0.3 v 0.2 l -0.8,1.8 h -0.5 c -0.1,-0.1 -0.7,-1.4 -1.8,-4 0,-0.4 -0.7,-1.9 -2,-4.5 l -1.9,-3.2 c -0.4,-0.4 -1.1,-2 -2,-4.8 -1.6,-2.3 -2.7,-3.5 -3.2,-3.6 l -3,-0.5 h -0.8 c -0.6,0 -1.1,0.4 -1.7,1.1 -1,0.4 -1.4,0.9 -1.4,1.4 0,0.5 0.3,0.7 0.8,0.7 0.4,0 0.8,-0.3 1,-0.8 h 0.2 c 0,0.8 -0.6,1.3 -1.9,1.6 H 187 c -0.1,0 -0.3,-0.3 -0.4,-0.8 0,-0.9 0.6,-1.9 1.9,-3.1 0,-0.6 0.4,-1.3 1.2,-1.9 0.9,-1.4 1.9,-2.3 3.1,-2.9 1.3,-1.2 2.1,-1.8 2.4,-1.8 h 0.6 c 1.3,0 2.6,1.3 3.8,4 0.3,0.1 0.5,0.6 0.7,1.4 0.8,0.9 1.3,1.7 1.3,2.4 l 1.8,4.1 c 0,0.4 0.4,1 1.3,1.8 0.4,0.7 0.8,1.8 1.3,3.4 v 0.6 c 0.4,0 0.7,0.3 1,1 0.1,0 0.4,0.3 0.7,1 h 0.1 c 0.5,0 1.1,-0.4 1.8,-1.3 1.1,-2.3 1.7,-3.8 1.7,-4.3 l 0.1,-0.8 -0.7,-0.2 c -0.3,0 -0.6,0.1 -0.9,0.4 l -0.3,-0.4 -1.2,-0.1 -0.3,0.2 h -0.2 l -0.2,-0.2 0.4,-0.1 -0.1,-0.1 v -0.3 h 1.7 v 0.3 H 209 v 0.1 h 0.6 l -0.1,-0.1 V 288 l 0.1,-0.1 0.6,0.1 h 0.7 v -3.5 c -0.6,-1.8 -1.4,-3.1 -2.4,-4 -0.4,-0.6 -1.1,-1 -2.2,-1.3 l -0.1,-0.1 v -0.2 c 2,-2.7 3.4,-4.2 4.4,-4.3 z m -15.9,5.3 v 0.2 h 0.4 v -0.2 z m 0.6,0 v 0.2 l 0.3,0.2 v -0.5 h -0.3 z m 0.6,0.9 0.1,0.5 h 0.2 v -0.1 z m 7.6,23.7 h 1.1 v 0.2 h -1.1 z m 1.6,0.1 1,0.1 0.4,-0.1 0.1,0.1 v 0.2 h -0.2 l -1.2,-0.1 v -0.2 z m 0.1,-16.7 h 0.4 v 0.3 h -0.4 z m 0.4,7.7 v 0.4 h 0.2 v -0.4 z m 0.1,-0.9 v 0.5 h 0.2 v -0.5 z m 0.1,-8.4 h 0.2 l 0.2,0.3 -0.1,0.1 -0.4,-0.1 v -0.3 z m 0.2,17.7 0.1,0.1 v 0.2 H 206 l -0.2,-0.2 0.1,-0.1 z m 0.7,-15.9 0.1,0.1 v 0.1 c -0.1,0.2 -0.3,0.4 -0.7,0.4 l -0.1,-0.1 v -0.1 z m 0.2,-1.8 v 0.1 l -0.2,0.3 -0.3,-0.3 0.1,-0.1 z m 0.6,-2.6 0.2,0.3 v 0.4 l -0.5,0.5 -0.4,-0.4 c 0.4,-0.1 0.6,-0.2 0.6,-0.4 h -0.2 V 284 Z m 8.4,20.2 0.1,0.4 1.8,0.1 0.2,-0.2 h 0.5 l 0.4,0.4 v 0.1 l -0.4,-0.2 h -0.2 l -0.7,0.2 v 0.1 h 1.6 l 0.2,0.2 v 0.1 c -1.3,-0.1 -2.5,-0.3 -3.4,-0.6 l -0.4,0.2 H 215 l -2.3,0.1 -0.2,-0.2 c 0,0.2 -0.3,0.2 -0.9,0.2 l 0.2,0.2 h 1.8 v 0.2 h -2 l -0.2,-0.2 v -0.1 l 0.1,-0.1 v -0.1 h -0.4 l -0.1,0.3 -2.6,-0.2 v 0.2 h -0.1 l -0.8,-0.4 v 0.1 l -0.2,0.2 h -0.1 l -0.2,-0.2 0.4,-0.5 0.6,0.1 h 0.4 l 0.6,-0.4 0.4,0.1 0.2,-0.2 0.5,0.2 2,-0.2 0.1,0.1 v 0.1 l -0.1,0.1 h 0.1 c 1,0 1.5,-0.1 1.5,-0.2 v 0.1 h 0.2 v 0.4 c 0.8,-0.1 1.2,-0.2 1.2,-0.4 l 0.1,0.1 h 0.2 z m -8.8,-6.9 v 0.4 l 1.1,-0.8 H 208 c -0.4,0.2 -0.6,0.4 -0.9,0.4 z m 0.4,-10.7 0.1,0.1 v 0.3 l -0.2,0.2 -0.1,-0.1 v -0.2 z m 0,-0.9 h 0.2 v 0.7 h -0.2 z m 0.1,2 h 1.3 v 0.2 h -1.3 z m 0.6,12.6 h 0.4 v 0.2 h -0.4 z m 0.7,-20.5 v 0.1 l 0.2,0.2 h 0.3 v -0.4 h -0.5 z m 0.5,5.8 0.1,0.1 v 0.1 l -0.1,0.1 h -0.1 l -0.1,-0.1 v -0.1 l 0.1,-0.1 z m 0.1,2 0.1,0.1 v 0.1 l -0.2,0.2 -0.1,-0.1 v -0.1 z m 0.1,17.1 v 0.1 h 0.6 v -0.1 z m 0.3,-6.7 h 0.2 l 0.2,0.3 -0.1,0.1 h -0.1 l -0.2,-0.2 z m 0.3,-19.9 v 0.5 h 0.4 v -0.1 l -0.1,-0.4 z m 0,3 v 0.4 h 0.2 v -0.4 z m 0.2,-1.6 v 0.6 h 0.4 l -0.1,-0.6 z m 1.7,14.1 0.1,0.1 v 0.1 l -0.1,0.1 H 212 l -0.1,-0.1 v -0.1 l 0.1,-0.1 z m 1.7,-1.1 0.2,0.4 -0.1,0.1 h -0.1 l -0.3,-0.4 0.1,-0.1 z m 0.3,-2.9 h 0.5 v 0.3 h -0.5 z m 0.7,1.1 h 0.1 v 0.4 l -0.2,0.3 -0.2,-0.3 z m 0.1,2.8 h 0.3 l 0.2,0.2 -0.2,0.3 -0.3,-0.4 z m 0.3,-2.3 h 0.4 v 0.2 h -0.1 z m 0.1,5.5 h 0.4 l -0.2,0.2 -0.1,-0.1 v -0.1 z m 0.6,-8.6 h 0.1 v 0.1 l -0.4,0.4 -0.1,-0.1 V 288 Z m 0.7,-8 0.1,0.1 v 0.1 l -0.2,0.2 -0.3,-0.2 z m 0.2,5.9 h 0.4 l -0.2,0.2 h -0.1 v -0.2 z m 0.3,4.5 0.1,0.1 h 0.1 l 0.4,-0.1 v 0.1 l -0.2,0.2 h -0.2 l -0.2,-0.2 z m 0.2,16 h 0.1 v 0.1 l -0.1,0.1 v 0.1 l 0.1,0.4 -0.5,-0.5 z m 0,-11.1 h 0.4 l -0.2,0.2 -0.1,-0.1 v -0.1 z m 0.8,-14.4 0.5,0.9 -0.1,0.1 h -0.2 c 0,-0.3 -0.1,-0.5 -0.4,-0.8 z m -0.1,3 h 0.1 l 0.2,0.3 v 0.2 h -0.1 L 218,284 Z m 0.3,8 h 0.2 v 0.8 h -0.2 z m 0,-14.9 0.5,0.4 -0.1,0.1 h -0.1 l -0.2,-0.4 v -0.1 z m 1,9.3 0.1,0.1 v 0.1 l -0.1,0.1 h -0.1 l -0.1,-0.1 v -0.1 l 0.1,-0.1 z m 1.9,18.2 c 1.9,0.1 3.2,0.2 3.9,0.4 h 3.3 v 0.2 H 226 c -1.7,0 -3.3,-0.1 -4.8,-0.4 z"
   id="path8" />
	<path
   class="st0"
   d="m 207.3,291.8 0.1,0.1 v 0.1 l -0.2,0.2 -0.1,-0.1 V 292 Z m 0.3,0.5 0.1,0.1 v 0.1 l -0.1,0.1 h -0.1 l -0.1,-0.1 v -0.1 l 0.1,-0.1 z m 1.2,-3.5 0.1,0.1 v 0.1 l -0.4,0.2 -0.1,-0.1 V 289 Z m 2.3,-4.1 0.2,0.3 v 0.1 h -0.2 l -0.3,-0.3 0.1,-0.1 z m 0,2.5 0.1,0.1 v 0.1 l -0.1,0.1 H 211 l -0.1,-0.1 v -0.1 l 0.1,-0.1 z m 0.7,1.2 0.1,0.1 v 0.1 l -0.3,0.2 -0.2,-0.2 z m 0.3,-2 v 0.1 l -0.2,0.2 -0.1,-0.1 v -0.1 l 0.1,-0.1 z m 0.5,5.1 0.1,0.1 v 0.1 l -0.1,0.1 H 212 v -0.2 z m 0.3,-3.4 v 0.2 l -0.5,0.1 -0.1,-0.1 v -0.1 l 0.1,-0.1 z m 0.9,-2.7 0.2,0.2 -0.1,0.1 h -0.1 l -0.2,-0.2 0.1,-0.1 z m -0.2,8.6 h 0.2 l 0.4,0.4 h -0.1 l -0.5,-0.1 z m 1,-13.7 0.1,0.1 v 0.1 l -0.3,0.5 h -0.2 v -0.4 z m -0.2,3.4 0.1,0.1 v 0.1 l -0.1,0.1 h -0.1 l -0.1,-0.1 v -0.1 l 0.1,-0.1 z m 0.4,1.5 c 0.2,0 0.4,0.4 0.4,1 H 215 l -0.4,-0.8 0.1,-0.1 h 0.1 z m 0,7.6 0.1,0.1 v 0.1 l -0.1,0.1 h -0.1 l -0.1,-0.1 v -0.1 l 0.1,-0.1 z m 0.5,-10 h 0.1 l 0.4,0.4 -0.1,0.1 h -0.1 l -0.3,-0.2 z m 0.6,7.2 0.1,0.1 v 0.1 l -0.1,0.1 h -0.1 l -0.1,-0.1 v -0.1 l 0.1,-0.1 z m 0.3,-12.6 0.1,0.1 v 0.1 l -0.1,0.1 H 216 v -0.1 z m 14,-3.1 h 0.2 l 0.3,0.2 -0.1,0.1 1.1,0.3 v 0.1 l -0.3,0.4 v 0.1 h 0.5 c 0,-0.2 0.1,-0.4 0.4,-0.4 3.3,0.6 5,1.6 5,2.9 -0.3,0.1 -0.6,0.3 -0.7,0.6 h 0.2 l 1,-0.4 v 0.1 l -0.1,0.1 v 0.1 l 0.4,0.4 -0.1,0.1 h -0.1 l -0.1,-0.1 h -0.1 v 0.4 c 0.6,0 0.8,0.2 0.8,0.7 v 0.1 l -1.7,2.3 h 1.5 v 0.2 h -1.5 c -1.9,0.8 -3.3,2.2 -4.1,4.1 -0.9,0.9 -1.6,1.4 -2.1,1.6 0,0.4 -0.2,0.6 -0.5,0.6 l 0.4,0.6 v 0.1 L 230,290 h -0.1 l -0.2,-0.2 0.1,-0.1 v -0.1 h -0.1 c -0.8,0.7 -1.8,1.7 -2.8,2.9 l -2.7,2.7 c 1.3,2 2.9,3 4.7,3 l 1.3,0.2 c 0.1,-0.8 0.2,-1.2 0.4,-1.2 l 0.1,0.1 -0.1,0.6 v 0.5 h 0.8 l 0.4,0.2 0.2,-0.2 h 0.3 c 0.2,0 0.3,0.2 0.5,0.7 h 0.1 c 0,-0.6 0.4,-1 1.2,-1 2.9,-1.4 4.5,-2.9 4.8,-4.5 l -0.1,-0.1 v -0.1 l 0.1,-0.4 h -0.1 c -0.5,-0.6 -1,-0.8 -1.6,-0.8 -0.3,0 -0.7,0.2 -1.1,0.5 H 236 v -0.1 c 0.4,-0.8 1,-1.2 1.6,-1.2 h 0.3 l 0.2,0.3 -0.2,0.2 h 0.2 v -0.2 h 0.6 l 0.7,0.6 v 0.4 h -0.2 v 0.1 c 0.4,0 0.6,0.4 0.6,1.1 v 0.6 c 0,0.7 -0.5,1.6 -1.6,2.8 -0.2,0 -0.4,0.2 -0.4,0.5 -0.3,0 -0.5,0.2 -0.5,0.6 l -1.4,1.3 -0.1,-0.5 c -0.4,0 -0.6,0.3 -0.8,1 l -0.1,0.1 h -0.4 c -0.2,0 -0.2,-0.1 -0.2,-0.4 h -0.1 l -0.3,0.2 0.1,0.1 v 0.1 c -0.3,0.1 -0.5,0.3 -0.5,0.7 -1.8,1.2 -3.3,1.8 -4.5,1.8 h -3.1 c -2.6,0 -4.4,-1 -5.6,-3.1 -1,-1.5 -1.8,-2.4 -2.4,-2.8 -0.6,-1.3 -1,-2.3 -1,-2.9 0.1,0 0.4,-0.3 0.7,-1 l -0.4,-0.4 -0.2,0.2 -0.1,-0.1 V 290 l 0.2,-0.4 v -1.5 l -0.1,-0.6 0.1,-0.1 -0.1,-0.1 v 0 l 0.4,-0.6 v -0.2 c -0.2,0 -0.4,-0.1 -0.4,-0.2 l 0.1,-0.1 h 0.1 l 0.1,0.1 h 0.1 v -0.1 l -0.2,-0.2 0.5,-1 c -1.1,0 -1.6,-0.2 -1.6,-0.4 l 0.1,-0.1 1.5,0.2 0.2,-0.4 -0.2,-0.2 0.8,-0.6 c 0.4,-1.8 1.3,-3.3 2.5,-4.5 1.4,-1.4 3.1,-2.6 5.1,-3.5 l 0.1,0.1 0.4,-0.5 h -0.4 l -0.1,0.1 H 226 v -0.1 c 0,-0.2 0.2,-0.2 0.6,-0.2 0,-0.3 0.1,-0.4 0.3,-0.4 l 1.1,1 0.2,-0.2 0.1,0.1 0.6,-0.2 -0.1,-0.4 h 0.1 l 0.4,-0.1 0.8,0.3 v -0.7 z m -13.7,12.7 0.1,0.1 v 0.1 l -0.1,0.1 h -0.1 l -0.1,-0.1 v -0.1 l 0.1,-0.1 z m 1.3,-4.4 0.1,0.1 v 0.1 l -0.2,0.3 -0.1,-0.1 v -0.1 z m 0.1,0.5 0.1,0.1 v 0.1 l -0.1,0.1 h -0.1 l -0.1,-0.1 v -0.1 l 0.1,-0.1 z m 4.3,-8.4 c 0.3,0 0.5,0.3 0.6,1 l -1.1,1 -0.4,-0.1 c -0.9,0 -1.5,0.4 -1.8,1.2 h -0.1 l -0.4,-0.3 h -0.6 v -0.1 c 0.1,-0.3 0.9,-0.7 2.4,-1.1 l 0.1,-0.1 v -0.1 h -0.5 v -0.2 h 0.6 v 0.2 h 0.1 v -0.2 l -0.1,-0.1 0.4,-0.3 0.4,0.1 c 0,-0.2 0.2,-0.3 0.6,-0.4 v -0.1 c -0.3,0 -0.5,-0.1 -0.5,-0.2 l 0.1,-0.1 h 0.2 z m -3.1,11.8 0.4,0.4 h 0.5 v -0.1 l -0.1,-0.1 0.1,-0.1 v -0.2 h -0.2 l -0.1,0.1 -0.1,-0.1 h -0.1 z m 1,-10.4 0.2,0.4 h -0.2 l -0.2,-0.2 0.1,-0.1 h 0.1 z m 0.3,-8.6 0.1,0.1 v 0.1 l -0.1,0.1 h -0.1 l -0.1,-0.1 v -0.1 l 0.1,-0.1 z m 0.3,6 0.1,0.1 v 0.1 l -0.4,0.3 -0.1,-0.1 v -0.1 z m 0.3,-1.3 h 0.2 v 0.2 l -0.2,0.2 -0.1,-0.1 z m 0.3,1.9 0.1,0.1 v 0.1 l -0.4,0.2 v 0 z m 0.6,-0.8 v 0.4 l -0.4,0.4 -0.1,-0.1 v -0.1 z m 0.1,24.6 v 0.1 h 0.3 l 0.6,-0.1 v -0.4 h -0.1 c -0.5,0 -0.8,0.2 -0.8,0.4 z m 0.5,-27.3 0.1,0.1 v 0.1 l -0.2,0.3 h -0.3 V 271 Z m -0.1,3.5 0.1,0.1 v 0.1 l -0.1,0.1 h -0.1 l -0.1,-0.1 v -0.1 l 0.1,-0.1 z m -0.2,24.6 v 0.6 l 0.6,-0.1 v 0.2 h 0.2 v -0.2 h -0.2 l 0.1,-0.1 v -0.4 h -0.1 l -0.1,0.1 h -0.1 z m 2.2,-17.9 h -0.6 v 0.4 h 0.2 v 0.1 c -0.3,0 -0.7,1.5 -1.2,4.6 l -0.4,5.1 v 0.1 c 0.4,0.4 0.6,1 0.7,1.6 0.2,0 0.3,0.3 0.4,0.8 h 0.1 l 5.2,-5.1 c 0.3,0 0.5,-0.2 0.7,-0.6 l -0.1,-1.7 h 0.1 l 0.1,0.1 h 0.1 V 285 c -0.2,0 -0.3,-0.2 -0.4,-0.6 l 0.3,-1 V 283 c -0.3,0 -0.5,-0.2 -0.5,-0.6 h -0.6 v -0.2 h 0.7 l -0.1,-0.1 V 282 c 0.3,-0.1 0.5,-0.3 0.5,-0.7 h -0.4 l -0.6,0.1 v -0.3 c 0.5,0 0.8,-0.1 0.8,-0.2 l -0.1,-0.4 h 0.1 l 0.4,-0.2 h 0.4 v 0.1 l -0.2,1.1 h 0.1 l 0.7,-0.1 0.4,0.1 v -0.8 c 0,-0.7 -0.9,-1.4 -2.7,-2.1 h -0.2 c -2,0.4 -3,0.8 -3,1.2 z m -1.3,-9.6 0.1,0.1 v 0.1 l -0.4,0.4 h -0.1 v -0.1 z m 0.2,-8.2 0.2,0.2 -0.1,0.1 h -0.1 l -0.2,-0.2 0.1,-0.1 z m 0.9,11.4 0.1,0.1 v 0.1 c 0,0.2 -0.4,0.4 -1.2,0.6 v -0.1 l 0.3,-0.5 0.1,0.1 h 0.1 z m -1.1,19.6 v 0.3 l 0.3,0.2 h 0.1 v -0.4 z m 0.2,5.4 v 0.3 h 0.4 v -0.3 z m 0.3,-33.1 0.1,0.1 v 0.1 l -0.1,0.1 h -0.1 l -0.1,-0.1 v -0.1 l 0.1,-0.1 z m -0.2,11.7 0.1,0.1 v 0.1 l -0.1,0.4 h 0.1 l -0.1,0.1 v 0.5 h 0.2 c 0,-0.6 0.2,-1 0.6,-1 l -0.1,-0.6 v -0.1 h 0.2 v -0.1 L 224,277 c -0.2,0 -0.4,0.4 -0.6,1 z m 0.5,13.5 h 0.3 v 0.1 l -0.3,0.2 z m 0,-24.5 h 0.4 v 0.2 h -0.4 z m 0.4,-6.7 0.2,0.5 h -0.1 l -0.4,-0.4 0.1,-0.1 z m 0.6,0.7 0.1,0.1 v 0.1 l -0.2,0.2 -0.2,-0.2 z m -0.4,4.3 h 0.4 v 0.2 h -0.4 z m 0.1,3.4 0.5,0.4 v 0.1 h -0.3 l -0.4,-0.4 z m 0.4,-1.4 0.1,0.1 v 0.1 l -0.2,0.2 -0.1,-0.1 v -0.1 z m 0.2,-2.1 0.5,0.4 h -0.4 l -0.2,-0.2 z m 0.4,12.2 v 0.1 h 0.4 v -0.4 h -0.1 z m 0.2,11.6 0.1,0.1 v 0.1 l -0.1,0.1 h -0.1 l -0.1,-0.1 v -0.1 l 0.1,-0.1 z m -0.1,-23.4 h 0.1 l 0.2,0.2 -0.1,0.1 h -0.1 l -0.1,-0.1 z m 0.2,18.1 0.1,0.1 v 0.1 l -0.1,0.1 h -0.1 l -0.1,-0.1 v -0.1 l 0.1,-0.1 z m 0.2,-17.1 0.4,0.5 -0.2,0.2 -0.4,-0.5 z m 0.4,4.4 0.1,0.1 v 0.5 h -0.2 l -0.1,-0.5 0.1,-0.1 z m 0.1,-9.7 0.1,0.1 v 0.1 l -0.2,0.2 -0.1,-0.1 v -0.1 z m 0,3 0.1,0.1 v 0.1 l -0.1,0.1 h -0.2 v -0.1 z m -0.2,19.3 h 0.4 l 0.3,0.2 v 0.1 l -0.5,0.4 -0.1,-0.1 0.1,-0.1 V 284 Z m 0.8,-16.9 0.1,0.1 v 0.1 l -0.1,0.1 h -0.1 -0.1 v -0.1 l 0.1,-0.1 h 0.1 z m -0.2,0.5 c 0.7,0.1 1.1,0.3 1.1,0.5 l -0.1,0.1 h -0.1 c -0.5,-0.2 -0.8,-0.4 -0.8,-0.5 v -0.1 z m 0,8.3 v 0.4 l 0.2,-0.3 v -0.1 z m 1,-14.6 0.4,0.2 0.4,-0.2 0.1,0.1 v 0.1 l -0.1,0.1 v 0.1 l 0.4,0.4 v 0.1 h -0.4 l -0.8,-0.5 h -0.6 v -0.2 z m 0.1,34.9 c 0.2,0 0.2,0.1 0.2,0.4 l 0.5,-0.4 c 0,0.3 0.2,0.4 0.7,0.4 v 0.1 l -0.4,0.1 -0.4,-0.1 -1.1,0.1 -0.3,-0.2 v -0.1 l 0.1,0.1 h 0.5 v -0.4 z m -0.3,-22.5 h 0.2 l 0.2,0.2 -0.2,0.2 z m 0.1,14.4 h 0.1 l 0.1,0.1 0.1,-0.1 h 0.4 v 0.1 l -0.6,0.6 z m 0.1,13.5 v 0.4 h 0.2 v -0.4 z m 0.4,-34.5 v 0.1 l -0.2,0.2 H 228 v -0.1 l 0.1,-0.1 h 0.3 z m -0.1,1.3 0.1,0.1 v 0.1 l -0.1,0.1 h -0.1 l -0.1,-0.1 v -0.1 l 0.1,-0.1 z m -0.2,7.7 v 0.2 h 0.2 l 0.2,-0.2 v -0.1 z m 0.4,-7.9 0.1,0.1 v 0.1 l -0.1,0.1 h -0.1 l -0.1,-0.1 v -0.1 l 0.1,-0.1 z m 0.5,-8.1 0.1,0.1 v 0.1 c 0,0.1 -0.2,0.2 -0.5,0.4 l -0.1,-0.1 V 260 Z m -0.3,29.3 -0.1,0.4 h 0.3 L 229,289 Z m 0.5,-15.1 h 0.4 l 0.4,0.4 h -0.1 l -0.5,-0.1 -0.1,0.5 h -0.1 l -0.1,-0.1 H 229 c -0.1,-0.5 0.1,-0.7 0.2,-0.7 z m -0.2,17.4 c 0.2,0 0.3,0.3 0.4,0.8 l -0.1,0.1 h -0.1 l -0.1,-0.1 0.1,-0.1 v -0.1 z m 0.1,2 h 0.2 l 0.1,0.7 -0.1,0.1 h -0.1 l -0.2,-0.3 z m 1.8,-22.2 h 0.1 l 0.2,0.2 -0.6,0.5 c 0,0.3 -0.1,0.4 -0.3,0.4 v 0.6 l 0.5,-0.1 0.1,0.1 1.5,-0.1 h 2.2 v 0.2 H 234 l -1.4,0.3 -0.1,-0.1 h -0.1 l -0.7,0.1 -0.8,-0.1 -0.4,0.1 v 0.2 h 0.7 l 0.2,0.2 v 0.1 c -0.4,0 -0.6,0.1 -0.8,0.3 l -0.3,-0.3 v 0.1 c -0.4,-0.1 -0.6,-0.2 -0.6,-0.4 l 0.5,-0.1 v -0.2 h -0.8 v -0.3 h 0.6 c 0.2,0 0.3,-0.5 0.4,-1.4 h 0.1 l 0.1,0.1 c 0.2,0.1 0.3,-0.1 0.3,-0.4 z m -1.2,-8.5 0.1,0.1 v 0.1 l -0.1,0.1 h -0.1 l -0.1,-0.1 v -0.1 l 0.1,-0.1 z m 0,5.8 v 0.4 h -0.2 v -0.1 z m -0.3,3.4 h 0.1 l 0.3,0.3 -0.1,0.1 h -0.1 l -0.1,-0.1 v -0.3 z m 0,10.6 v 0.4 l 0.1,-0.1 h 0.1 l 0.1,0.1 v -0.4 l -0.1,0.1 h -0.1 z m 0.7,-17.4 -0.5,0.5 -0.1,-0.1 v -0.2 z m -0.3,2 0.1,0.1 v 0.1 l -0.1,0.1 h -0.1 l -0.1,-0.1 v -0.1 l 0.1,-0.1 z m -0.1,25.8 h 0.2 v 0.5 h -0.2 z m 0.1,0.8 h 0.1 l 0.4,2.1 -0.1,0.1 0.6,0.1 v 0.3 l -0.2,0.2 -0.4,-0.1 0.2,0.4 -0.2,0.3 v 0.7 H 230 l -0.2,-1.4 0.2,-0.3 v -0.1 l -0.1,-0.1 0.1,-0.1 V 295 h -0.2 z m 0.2,-10.8 -0.1,0.6 c 0.2,0 0.4,0.1 0.4,0.2 h 0.3 l 0.6,-0.1 v 0.2 c -0.3,0 -0.5,0.1 -0.5,0.3 v 0.1 h 0.2 v 0.2 h -0.7 v 0.5 c 0,0.9 -0.1,1.6 -0.2,1.9 v 0.1 h 0.1 c 1,-1.4 1.5,-2.6 1.5,-3.5 v -0.7 l -0.1,0.1 H 230 Z m -0.1,7.7 h 0.2 l 0.1,0.6 h -0.1 l -0.2,-0.2 z m 0.7,-32 h 0.4 v 0.2 l -0.9,0.1 v -0.2 z m -0.6,23.3 v 0.8 l 1.5,-0.2 -0.1,-0.6 -1.2,0.1 z m 0.4,-21.8 h 0.1 c 0.1,0 0.2,0.2 0.4,0.5 l -0.1,0.1 h -0.1 l -0.2,-0.4 V 260 Z m 0.4,23.1 h 0.1 v 0.2 h -0.4 z m 0.3,-9 0.1,0.1 v 0.1 l -0.1,0.1 H 231 l -0.1,-0.1 v -0.1 l 0.1,-0.1 z m 0.1,-8 0.1,0.1 v 0.2 l -0.2,0.2 -0.1,-0.1 v -0.1 l 0.1,-0.1 -0.1,-0.1 0.1,-0.1 z m 0.1,0.7 v 0.3 l -0.2,0.2 -0.1,-0.1 v -0.1 z m -0.2,4.8 h 0.4 l -0.3,0.2 h -0.1 z m 0.4,26 v 0.1 l -0.3,0.3 h -0.1 v -0.3 z m 0.3,-37.1 0.1,0.1 h 0.9 l 0.1,-0.1 h 0.1 l 0.1,0.1 v 0.4 l -0.4,0.4 h -0.4 v -0.2 h 0.4 V 261 h -0.4 l -1.2,0.1 v -0.2 c 0.5,-0.1 0.7,-0.2 0.7,-0.4 z m -0.3,4.4 0.2,0.6 h -0.2 l -0.2,-0.5 0.1,-0.1 z m 0.2,5.8 0.1,0.1 v 0.1 l -0.1,0.1 h -0.1 l -0.1,-0.1 v -0.1 l 0.1,-0.1 z m 0.8,-11.5 0.1,0.1 v 0.2 h -0.1 l -0.2,-0.2 0.1,-0.1 z m -0.3,9.2 h 0.4 l -0.2,0.2 -0.1,-0.1 v -0.1 z m 1.1,2.7 0.5,0.5 -0.1,0.1 h -0.1 l -0.4,-0.1 -0.4,0.1 -0.1,-0.1 v -0.1 z m 0.3,-4.7 0.4,0.1 v 0.2 h -1.1 v -0.2 z m -0.2,-6.5 0.1,0.1 v 0.1 l -0.1,0.1 h -0.1 l -0.1,-0.1 V 260 l 0.1,-0.1 z m 0.1,3.7 0.1,0.1 v 0.1 l -0.4,0.2 -0.1,-0.1 v -0.1 z m -0.1,13.8 v 0.3 l 0.2,0.2 h 0.2 v -0.2 l -0.2,-0.3 z m 0.5,-16.3 0.1,0.1 v 0.1 l -0.1,0.1 h -0.1 l -0.1,-0.1 v -0.1 l 0.1,-0.1 z m 0.6,4.6 v 0.2 l -0.5,0.1 -0.1,-0.1 v -0.1 l 0.1,-0.1 z m 0.3,-5.1 0.2,0.4 -0.2,0.2 h -0.1 l -0.1,-0.1 h -0.1 z m -0.1,0.7 0.1,0.1 v 0.4 h -0.1 l -0.2,-0.2 z m 0.7,6.7 0.4,0.6 -0.1,0.1 h -0.1 l -0.4,-0.5 z m -0.1,13.1 v 0.4 l 1,-0.2 v -0.4 h -0.5 z m 0.5,-14.4 h 0.3 l 0.1,0.4 -0.8,0.4 -0.1,-0.1 v -0.1 c 0.3,-0.2 0.5,-0.3 0.5,-0.6 z m -0.2,-0.1 0.1,0.1 v 0.1 l -0.1,0.1 h -0.1 l -0.1,-0.1 v -0.1 l 0.1,-0.1 z m -0.1,32 v 0.4 h 0.2 v -0.4 z m 0.3,-10.3 h 0.4 l -0.2,0.5 -0.4,-0.1 v -0.1 z m 0.7,-21.8 h 0.1 v 0.2 l -0.2,0.2 -0.1,-0.1 v -0.1 z m 0.4,-6.3 0.1,0.1 v 0.1 l -0.1,0.1 h -0.1 l -0.1,-0.1 v -0.1 l 0.1,-0.1 z m 1,11 h 0.2 l 0.4,1 h -0.1 l -0.5,-0.6 z m 0.4,-3 h 0.2 v 0.8 l -0.2,0.3 -0.1,-0.1 0.1,-0.1 z m 0.7,-0.5 0.1,0.1 v 0.1 c -0.1,0.4 -0.2,0.6 -0.4,0.6 h -0.1 c 0.2,-0.6 0.3,-0.8 0.4,-0.8 z m 0.9,4.4 0.2,0.5 -0.4,0.2 -0.1,-0.1 v -0.4 z m 0,-5.5 0.1,0.1 v 0.3 h -0.1 l -0.2,-0.3 0.1,-0.1 z"
   id="path10" />
	<path
   class="st0"
   d="m 234.2,291 0.1,0.1 v 0.1 l -0.1,0.1 h -0.1 l -0.1,-0.1 v -0.1 l 0.1,-0.1 z m 0.2,-2.2 c 0.3,0.1 0.5,0.3 0.5,0.4 v 0.1 h -0.1 c -0.3,-0.1 -0.5,-0.2 -0.5,-0.4 z m 1.5,-14 0.1,0.1 v 0.1 l -0.1,0.1 h -0.1 l -0.1,-0.1 v 0 l 0.1,-0.1 h 0.1 z m 0,22.4 0.3,0.4 -0.1,0.1 H 236 l -0.2,-0.4 z m 0.6,1.7 h 0.2 l -0.1,0.8 h -0.2 v -0.2 z m 1,-1.1 0.1,0.1 v 0.1 l -0.4,0.2 -0.2,-0.2 z m -0.2,-16.2 0.1,0.1 v 0.1 l -0.1,0.1 h -0.1 l -0.1,-0.1 v -0.1 l 0.1,-0.1 z m 1,15.6 v 0.1 l -0.2,0.2 -0.3,-0.2 0.1,-0.1 z m 17,-22.6 v 0.5 h 0.1 l 0.5,-0.4 h 0.5 c 1.7,1 2.5,2 2.5,3 v 1.7 c 0,0.6 -0.4,1.7 -1.3,3.1 0,0.5 -0.5,1.4 -1.6,2.7 -0.8,1 -1.6,1.6 -2.5,1.6 l -0.3,0.3 c -1.2,-0.2 -1.8,-0.7 -1.8,-1.5 V 285 c 0.2,-0.7 0.4,-1.1 0.6,-1.1 v 0.1 l -0.2,0.7 v 0.3 c 0,0.4 0.2,0.8 0.6,1 h 0.1 c 0.9,0 1.6,-1.1 2.1,-3.3 v -0.6 c -0.3,-1.6 -0.8,-2.4 -1.6,-2.4 h -0.7 c -0.5,0 -1.2,0.4 -2.1,1.3 v 1.8 l -0.2,1.9 v 0.1 l -0.1,4.7 0.6,1.1 v 0.7 c -0.2,0 -0.2,0.1 -0.2,0.4 l -0.4,0.4 v 0.4 l 0.4,-0.2 v 0.1 l -0.1,0.1 0.1,0.1 v 0.1 l -0.1,0.1 0.4,1.1 c -0.3,0 -0.5,0.2 -0.5,0.5 v 0.1 h 0.1 v -0.2 h 0.1 l 0.2,0.2 v 1 l -0.2,0.2 0.1,0.5 -0.1,0.6 0.1,0.1 v 0.1 l -0.1,0.1 v 0.1 l 0.1,0.1 v 0.1 l -0.4,0.8 0.1,0.6 -0.1,0.1 0.5,0.5 -0.1,0.1 h -0.1 l -0.2,-0.2 v 0.2 h 0.2 v 0.1 l -0.1,0.5 0.1,0.5 -0.7,0.7 0.1,0.1 -0.1,0.1 h -0.1 l -0.1,-0.1 c 0,0.2 -0.2,0.2 -0.7,0.2 0,0.3 -0.1,0.5 -0.4,0.5 l -0.6,-0.2 -0.4,0.8 0.1,0.1 c -0.6,0.7 -1.2,1 -1.8,1.1 -0.6,0.7 -1,1.2 -1,1.5 h -0.3 v -1.2 c 0,-1.3 0.1,-2 0.4,-2.3 l -0.1,-0.5 0.1,-1.1 -0.4,-0.4 0.1,-3.9 v -1 l -0.1,-1.1 c 0.2,-0.4 0.3,-1.6 0.3,-3.4 v -0.2 l -0.1,-1.3 0.1,-0.6 -0.3,-1.4 v -1.5 l -0.1,-0.1 0.1,-0.4 c -0.3,-1.2 -0.9,-1.8 -1.7,-1.8 h -0.4 c -0.7,0 -1.2,0.4 -1.6,1.2 0,0.4 0.3,0.6 0.7,0.6 h 0.3 c 0.2,0 0.4,-0.4 0.8,-1.1 h 0.1 l -0.5,1.3 0.1,-0.1 h 1 l 0.6,0.1 v 0.2 h -0.1 l -1.7,-0.1 c -0.5,0.3 -0.8,0.5 -1.1,0.5 h -0.1 c -0.3,0 -0.7,-0.2 -1.1,-0.6 l -0.5,0.4 -0.6,-0.3 v -0.2 l 0.6,-0.1 0.1,0.1 h 0.4 v -0.4 c 0,-1.3 0.6,-2.5 1.9,-3.4 1,-1.6 2.1,-2.9 3.1,-4 0.5,-0.2 1.1,-0.4 1.9,-0.5 l 1.1,-1 h 0.2 c 0.9,0 1.5,0.7 1.8,2.2 2.4,-2.1 4.2,-3.4 5.7,-3.4 z m -16.5,23.1 h 0.3 v 0.5 l -0.3,0.2 -0.1,-0.1 v -0.1 z m 0.2,-3.3 0.1,0.1 v 0.2 H 239 l -0.3,-0.2 0.1,-0.1 z m 0.5,4.1 0.2,0.5 -0.1,0.1 h -0.1 l -0.2,-0.4 z m 2.8,-11.4 0.1,0.1 v 0.1 l -0.1,0.1 H 242 v -0.1 z m -0.2,6.2 h 0.4 l 0.2,0.2 -0.1,0.1 h -0.1 l -0.4,-0.1 z m 3.4,-13.4 h 0.1 c 0.4,0 0.7,-0.2 0.8,-0.6 v -0.1 h -0.3 l -0.7,0.5 v 0.2 z m 0.3,1.6 v 0.1 h 0.1 l 0.4,-0.1 v -0.1 h -0.1 z m 1.3,8.8 v 0.1 l 0.2,0.2 h 0.1 v -0.4 h -0.3 z m 0.2,6 -0.1,0.4 h 0.2 v -0.4 z m 1.7,8.1 0.1,0.1 v 0.1 l -0.1,0.1 h -0.1 l -0.1,-0.1 v -0.1 l 0.1,-0.1 z m 0.1,-2.3 h 0.2 c 0,0.2 0.2,0.2 0.5,0.2 l 0.1,0.1 v 0.2 l -0.7,0.1 -0.2,-0.4 z m 0.3,0.9 0.3,0.2 v 0.1 l -0.3,-0.2 z m 0.5,-1.6 h 0.1 l 0.2,0.2 h -0.1 z m 0.3,2.4 h 0.2 l 0.3,0.2 v 0.2 l -0.6,0.1 v -0.1 z m 0.3,-2.6 h 0.4 l -0.2,0.2 h -0.1 v -0.2 z m 0.6,-1.6 v 0.2 l -0.2,0.3 -0.2,-0.3 z m 0,-2.2 h 0.1 l 0.2,0.2 v 1.1 l -0.2,0.3 -0.2,-0.5 v -0.2 z m 0.6,1.8 c 0,0.2 0.2,0.4 0.5,0.4 l 0.1,0.1 v 0.1 l -0.1,0.1 H 252 l -0.6,-0.6 0.1,-0.1 z m 0,3.4 0.2,0.2 -0.2,0.2 -0.3,-0.4 0.1,-0.1 h 0.2 z m 0.2,-0.6 0.2,0.4 -0.1,0.1 h -0.1 l -0.2,-0.2 z m 0.5,-20.9 v 0.1 l -0.2,0.2 -0.1,-0.1 v -0.1 l 0.1,-0.1 z m 0.4,1.5 0.1,0.1 v 0.1 l -0.1,0.1 h -0.1 l -0.1,-0.1 v -0.1 l 0.1,-0.1 z m 0.1,20.3 h 0.2 v 0.4 l -0.2,0.3 -0.2,-0.3 c 0.1,-0.1 0.2,-0.2 0.2,-0.4 z m 0.3,-22.6 0.3,0.2 -0.3,0.2 -0.2,-0.4 0.1,-0.1 h 0.1 z m -0.2,1.3 h 0.1 l 0.2,0.2 -0.1,0.1 h -0.1 l -0.1,-0.1 z m 0.5,9.7 v 0.1 l -0.3,0.2 -0.2,-0.2 0.1,-0.1 z m 1.8,5.9 0.1,0.1 v 0.2 h -0.1 l -0.2,-0.2 0.1,-0.1 z m 1,-7.4 v 0.1 l -0.2,0.2 -0.1,-0.1 v 0 l 0.1,-0.1 h 0.2 z m 0.2,-2.2 h 0.4 v 0.2 h -0.4 z m 1,17.4 0.1,0.1 v 0.1 l -0.1,0.1 h -0.1 l -0.1,-0.1 v -0.1 l 0.1,-0.1 z m 0.1,-11.6 0.1,0.1 v 0.1 l -0.1,0.1 h -0.1 l -0.1,-0.1 v -0.1 l 0.1,-0.1 z m 0.2,9.5 0.1,0.1 v 0.1 l -0.1,0.1 h -0.1 l -0.1,-0.1 V 303 l 0.1,-0.1 z m 0,-12.4 h 0.2 l 0.2,0.2 -0.1,0.1 -0.4,-0.1 v -0.2 z m 0.3,14.4 0.1,0.1 v 0.1 l -0.1,0.1 H 258 l -0.1,-0.1 V 305 l 0.1,-0.1 z m 0.1,-0.8 0.1,0.1 v 0.1 l -0.1,0.1 h -0.1 l -0.1,-0.1 v -0.1 l 0.1,-0.1 z m 0.1,2 0.1,0.1 v 0.1 l -0.1,0.1 h -0.1 l -0.1,-0.1 v -0.1 l 0.1,-0.1 z m -0.1,-2.5 h 0.6 v 0.2 h -0.6 z m 0.4,-6.9 0.2,0.3 -0.4,0.2 -0.1,-0.1 V 297 Z m 0.9,-4 0.1,0.1 v 0.1 l -0.4,0.2 h -0.1 V 293 Z m 0.3,13.5 0.1,0.1 v 0.1 l -0.1,0.1 h -0.1 l -0.1,-0.1 v -0.1 l 0.1,-0.1 z m 1.6,-16.2 0.1,0.1 v 0.4 l -0.3,0.2 -0.1,-0.1 v -0.1 l 0.1,-0.1 v -0.1 l -0.1,-0.1 0.1,-0.1 h 0.2 z m 0.5,3.4 h 0.1 l 0.2,0.2 v 0.1 h -0.1 l -0.2,-0.2 z m 0.5,-8.2 0.1,0.1 v 0.1 l -0.1,0.1 h -0.1 l -0.1,-0.1 v -0.1 l 0.1,-0.1 z m 0.3,-4.4 h 0.4 v 0.3 h -0.4 z m 0.2,6 0.2,0.5 -0.1,0.1 h -0.1 l -0.2,-0.4 z m 0.3,-16.7 0.1,0.1 v 0.1 l -0.1,0.1 h -0.1 l -0.1,-0.1 v -0.1 l 0.1,-0.1 z m 2,12.1 v 0.1 l -0.2,0.2 -0.1,-0.1 v -0.1 l 0.1,-0.1 z m 0.4,0.6 0.2,0.3 -0.5,0.4 -0.1,-0.1 v -0.1 z m 0.3,17.5 0.1,0.1 v 0.1 l -0.1,0.1 h -0.1 l -0.1,-0.1 v -0.1 l 0.1,-0.1 z"
   id="path12" />
	<path
   class="st0"
   d="m 254,271.4 0.1,0.1 v 0.1 l -0.1,0.1 h -0.5 v -0.2 z m -0.1,13.1 0.1,0.1 v 0.1 l -0.1,0.1 h -0.4 v -0.2 z m 0.5,-2.8 h 0.5 v 0.2 h -0.5 z m 5.8,-11 0.4,0.4 h 1.2 l 0.6,-0.4 0.1,0.4 h 2.2 v -0.2 h 0.2 c 0,0.3 0.2,0.5 0.4,0.5 h 1.3 l 1.6,0.1 0.8,-0.2 c 0,0.2 0.2,0.3 0.7,0.4 l -0.1,-0.1 v -0.1 l 0.4,-0.4 0.1,0.4 h 0.7 v -0.1 h -0.4 v -0.2 h 0.1 c 0.8,0 1.2,0.2 1.2,0.4 v 0.1 h -0.1 l -0.5,-0.1 H 271 v 0.1 c 0.2,0 0.4,0.1 0.4,0.2 l 0.1,-0.1 h 0.1 l 0.4,0.1 v 0.2 h -1.2 l -0.4,0.2 h -0.2 l -0.5,-0.2 -2.3,0.1 -2.8,-0.6 h -0.1 v 0.1 l 0.8,0.1 h 0.2 v 0.2 h -0.1 l -1.4,-0.1 -0.6,0.1 -1.2,-0.1 h -0.6 l -0.7,0.2 c 0,0.5 -0.4,0.7 -1.3,0.7 -0.3,-0.1 -0.6,-0.3 -0.9,-0.7 l -2.2,-0.1 -0.7,0.1 c 0,-0.2 -0.3,-0.3 -0.9,-0.4 v -0.2 l 1.3,-0.2 0.5,0.1 0.2,-0.2 h 2.5 l 0.6,-0.1 0.1,0.1 c -0.1,-0.4 -0.1,-0.5 0.1,-0.5 z m -3.5,15.3 c 0,0.3 0.3,0.5 0.8,0.5 v 0.2 h -0.6 l -1.1,-0.4 v -0.1 l 0.1,-0.1 h 0.2 l 0.1,0.1 h 0.1 z m 0,-14.7 v 0.2 h 0.6 v -0.1 z m 0.4,12.1 h 0.1 l -0.3,0.2 h -0.1 z m 1,-0.8 0.1,0.1 v 0.1 l -0.1,0.1 H 258 l -0.1,-0.1 v -0.1 l 0.1,-0.1 z m 0,2.5 0.3,0.4 -0.1,0.1 h -0.1 l -0.2,-0.4 z m 0.4,-2.6 h 0.2 v 0.4 h -0.2 z m 0,-11.2 v 0.1 h 0.6 v -0.1 z m 0.3,14.5 c 0.3,0.5 0.5,0.8 0.5,1.1 h -0.2 l -0.5,-0.8 z m 0.3,-13.8 c 0.1,0.2 0.3,0.4 0.7,0.4 l -0.4,-0.4 z m 8.7,2.4 c 6,0.7 9,1.5 9,2.3 0,0.2 0.5,0.8 1.4,1.9 0.5,1 0.7,1.8 0.7,2.4 -0.4,1.1 -0.8,1.7 -1.2,1.7 h -0.8 c -1.1,-0.4 -1.7,-1 -1.7,-1.8 l 0.1,-0.8 h 0.3 v 0.1 l -0.1,0.1 c 0,0.7 0.3,1.1 1,1.2 h 0.4 c 0.4,-0.2 0.6,-0.5 0.6,-1 0,-0.5 -0.8,-1.4 -2.3,-2.8 l -1.8,-1 c 0,-0.3 -0.9,-0.4 -2.8,-0.4 h -2.7 c -2.7,0.5 -4.1,1.5 -4.1,2.8 l -0.1,0.1 v 0.1 c 0,1.9 0.7,3.1 2.2,3.5 1.5,0.4 3.3,1.2 5.6,2.5 l 4.5,1.8 1.4,1.5 c 0.2,0 0.4,0.9 0.8,2.8 v 0.4 l 1,0.1 v 0.2 h -0.1 l -0.6,-0.1 v 0.1 c 0.3,0.3 0.5,1 0.5,1.9 h 0.1 v 0 h 0.3 c 0,0.5 -0.4,1.5 -1.1,3 0,0.6 -0.5,1.5 -1.6,2.8 v 1.1 l 0.8,-0.3 0.1,0.1 v 0.1 l -1.1,0.2 v 0.4 l 0.2,0.4 c 0,0.2 -0.1,0.2 -0.4,0.2 l 0.1,0.6 v 0.6 c 0,0.2 -0.1,0.2 -0.4,0.2 l 0.1,1.1 h -0.2 c 0,-0.3 -0.4,-0.8 -1.2,-1.6 l -0.1,-0.4 0.1,-0.1 h 0.1 l 0.1,0.5 0.1,-0.1 h 0.1 l 0.2,0.3 v -0.3 l -0.1,-0.8 0.1,-0.1 c -0.2,0 -0.4,-0.2 -0.4,-0.5 h -0.1 l -0.4,0.2 H 274 v -0.2 c 0.9,-0.1 1.3,-0.3 1.3,-0.6 l 0.1,-0.4 h -0.1 c -1,0.6 -2.3,1.1 -3.8,1.5 l -0.2,0.2 h -1.2 c -0.2,-0.2 -1.1,-0.3 -2.8,-0.5 0,-0.1 -0.6,-0.4 -1.8,-0.8 -2.3,-1.7 -3.5,-2.9 -3.6,-3.5 -0.2,0 -0.4,-0.3 -0.5,-0.8 -0.2,0 -0.3,-0.2 -0.4,-0.6 -0.8,-1 -1.2,-1.6 -1.2,-2.1 l 0.1,-0.1 -0.1,-0.6 v -0.5 c 0,-0.9 0.6,-1.4 1.9,-1.7 0.9,0 1.3,0.4 1.3,1.2 l -0.4,0.5 -0.1,-0.1 h -0.1 l 0.1,-0.1 v -0.3 l -0.3,-0.5 H 262 c -0.5,0 -0.9,0.4 -1.2,1.1 0,1.3 1.2,3.1 3.8,5.6 1.8,1.4 3.7,2.2 5.8,2.2 h 1 c 1.5,0 2.6,-0.6 3.4,-1.8 l -0.1,-0.1 v -0.2 l 0.1,0.1 h 0.1 v -0.4 c -0.3,0 -0.5,-0.3 -0.5,-0.8 h 0.1 l 0.4,0.2 0.2,-0.4 c -0.2,0 -0.3,-0.2 -0.4,-0.6 l 0.1,-0.1 h 0.1 l 0.1,0.1 v -1 c -0.9,-1.5 -1.5,-2.5 -2.1,-2.9 -2.1,-1.2 -4.8,-2.7 -8.1,-4.2 -0.2,-0.3 -1.4,-1.3 -3.5,-2.8 -0.6,-0.9 -1,-2.2 -1,-4 v -0.7 c 0.7,-3.1 1.4,-4.6 1.9,-4.6 1.6,-1.2 3.3,-1.8 5.1,-1.8 l 0.1,0.1 z m -7.7,-3.1 v 0.1 l 1.4,0.1 c 0,-0.2 -0.1,-0.2 -0.4,-0.2 z m 2.7,12.4 v 0.1 l 1.3,0.5 c 0,-0.3 -0.4,-0.5 -1.2,-0.6 z m 0.7,-13.1 h 0.2 l 0.2,0.2 -0.1,0.1 -0.4,-0.1 v -0.2 z m 0.2,14.2 v 0.1 h 0.4 l 0.1,-0.1 v -0.1 H 264 Z m 2.4,15.6 h 0.4 v -0.2 h -0.1 z m 0.8,-0.1 0.3,0.2 h 0.2 v -0.2 z m 0.5,0.7 v 0.1 l 0.8,0.1 -0.2,-0.2 z m 0.6,-14.1 v 0.4 h 0.1 l 0.2,-0.2 V 287 H 268 Z m 0.4,-0.4 v 0.2 h 0.5 v -0.2 z m 1.3,14.5 v 0.2 h 0.4 V 301 Z m 0.3,-29.5 v 0.1 h 0.7 v -0.1 z m 1.3,9.1 0.1,0.1 v 0.1 l -0.1,0.1 h -0.1 l -0.1,-0.1 v -0.1 l 0.1,-0.1 z m 3.4,-9.6 0.2,0.2 h 0.4 l 4.1,0.1 v 0.2 h -2.1 l -1.9,-0.1 h -0.1 v 0.1 l 0.9,0.1 v 0.2 h -0.4 l -1.3,-0.2 h -1.3 c -0.1,-0.2 -0.5,-0.2 -1.3,-0.2 l -0.1,-0.1 v -0.1 l 0.1,-0.1 h 0.2 l 0.5,0.1 0.1,-0.1 0.7,0.1 z m -1,9.1 0.2,0.3 -0.1,0.1 h -0.4 v -0.1 z m 0,16.1 c 0.1,0.4 0.3,0.6 0.6,0.6 V 297 H 274 c -0.3,-0.2 -0.5,-0.4 -0.5,-0.7 l 0.1,-0.1 z m 0.1,8.4 0.1,0.1 v 0.1 l -0.1,0.1 h -0.1 l -0.1,-0.1 v -0.1 l 0.1,-0.1 z m 1.4,-0.4 0.1,0.1 v 0.1 l -0.1,0.1 H 275 l -0.1,-0.1 v -0.1 l 0.1,-0.1 z m 0.9,-4 v 0.5 h 0.1 v -0.5 z m 1,3.4 0.1,0.1 v 0.1 l -0.2,0.2 -0.2,-0.2 z m -0.2,-1.9 h 0.4 v 0.3 h -0.4 z m 0.7,2.3 0.2,0.4 -0.2,0.2 -0.2,-0.4 z m 0.2,-1.1 0.1,0.1 v 0.1 l -0.1,0.1 h -0.1 l -0.1,-0.1 V 303 l 0.1,-0.1 z m 0.4,-3.8 0.1,0.1 v 0.1 l -0.4,0.4 -0.1,-0.1 c 0.1,-0.3 0.3,-0.5 0.4,-0.5 z m 0,1.6 0.4,0.7 h -0.1 l -0.5,-0.6 0.1,-0.1 z m 1.1,-13.1 0.1,0.1 v 0.1 l -0.1,0.1 h -0.6 v -0.3 z m 1,-3.9 0.1,0.1 v 0.1 l -0.6,0.5 h -0.1 v -0.1 z m -0.4,6.6 0.4,1.2 h -0.1 c -0.2,0 -0.3,-0.4 -0.5,-1.1 l 0.1,-0.1 z m 0.9,-6 0.1,0.1 v 0.1 l -0.1,0.1 h -0.4 v -0.2 z m 0.8,4.9 h 0.6 v 0.2 c -0.4,0 -0.6,0.1 -0.6,0.3 l -0.2,0.2 -0.1,-0.1 c 0,-0.4 0.1,-0.6 0.3,-0.6 z m 0.6,-15.9 h 0.5 v 0.2 h -0.5 z m 0.2,13.8 0.1,0.1 v 0.1 l -0.1,0.1 h -0.2 v -0.1 z m 0,-2.4 h 0.2 l 0.3,0.2 -0.1,0.1 h -0.1 l -0.2,-0.3 v 0 z m 0.3,5.9 0.1,0.1 v 0.5 l -0.2,0.2 -0.1,-0.1 v -0.1 l 0.1,-0.1 -0.1,-0.1 v -0.1 z m 0.1,-2.3 c 0.3,0.1 0.5,0.2 0.5,0.4 l -0.1,0.1 H 283 l -0.4,-0.4 z m 0.7,2.3 0.1,0.1 v 0.8 h -0.2 l -0.1,-0.8 0.1,-0.1 z m 0.9,-13.4 h 0.4 l 0.3,0.2 -0.1,0.1 -0.5,-0.1 v -0.2 z m 0.2,6.2 0.3,0.2 -0.1,0.1 h -0.1 l -0.2,-0.2 z m 0.6,2.6 0.2,0.4 v 0.2 l -0.2,0.3 -0.1,-0.1 v -0.1 l 0.1,-0.1 v -0.1 l -0.2,-0.2 0.1,-0.1 h 0.1 z m 0.5,9.2 -0.4,0.4 h -0.1 v -0.2 z m 0.5,-9.5 h 0.4 v 0.2 h -0.4 z m 0.5,-2.4 c 0.1,0.3 0.2,0.5 0.5,0.5 v 0.2 h -0.4 c -0.2,0 -0.3,-0.2 -0.4,-0.6 l 0.1,-0.1 z m 0.6,-1.6 c 0,0.2 0.1,0.4 0.4,0.4 l 0.1,0.1 v 0.1 l -0.1,0.1 h -0.3 l -0.2,-0.3 0.1,-0.1 -0.2,-0.2 0.1,-0.1 z m 1.9,4.9 0.1,0.1 v 0.4 h -0.1 l -0.2,-0.2 z m 0.7,7.9 0.1,0.1 v 0.4 l -0.2,0.2 -0.1,-0.1 V 295 h 0.1 l -0.1,-0.1 v -0.1 z m 0.3,-14.9 0.3,0.4 v 0.1 h -0.3 l -0.2,-0.2 z m 1.3,13.4 h 0.2 v 0.5 l -0.2,0.2 h -0.1 z m 0.2,-9 0.2,0.4 -0.1,0.1 h -0.1 l -0.2,-0.4 0.1,-0.1 z m 0.1,2.3 h 0.1 l 0.4,0.4 -0.1,0.1 h -0.1 l -0.2,-0.4 v -0.1 z"
   id="path14" />
	<path
   class="st0"
   d="m 278,309.5 0.4,0.1 v 0.2 h -0.2 l -0.2,-0.2 z m 21.2,-39.9 c 2.2,1.2 3.4,2 3.5,2.6 1.7,1.2 2.6,2.5 2.6,3.9 1.2,2 1.9,3.9 1.9,5.6 v 1.2 l -0.7,4 c -1.4,2.7 -2.9,4.8 -4.7,6.4 -1.3,0.8 -1.9,1.3 -1.9,1.6 l -0.2,0.6 v 0.1 c 0,0.4 0.1,0.8 0.4,1.1 l -0.1,0.1 -0.1,-0.1 h -0.2 v 0.6 l 0.1,0.5 -0.4,0.5 -0.1,-0.1 v -0.1 h 0.1 l -0.4,-0.7 v -0.1 l 0.1,-0.1 v -0.1 h -0.2 v -0.2 h 0.5 l -0.2,-0.4 c 0,-0.4 0.1,-0.6 0.2,-0.6 l -0.1,-0.7 c -1.6,0.9 -2.9,1.3 -3.8,1.3 h -1.2 c -2.1,-0.5 -3.4,-1 -3.8,-1.4 0,0.5 -0.2,0.9 -0.5,1.2 l -0.2,1.2 v 1.2 l 0.5,5.5 -0.2,4.8 0.4,2.8 c -1,1.7 -2.6,2.6 -4.8,2.6 h -1.9 c -1.3,0 -2.1,-0.8 -2.7,-2.3 l 0.1,-0.4 -0.1,-0.4 c 0,-1 0.3,-1.5 0.8,-1.5 l 0.4,0.1 v -0.7 l 0.4,-0.4 h 0.7 c 0.5,0.4 0.8,0.9 0.8,1.5 H 284 c -0.4,-0.6 -0.8,-0.9 -1.1,-0.9 -0.3,0.3 -0.5,0.5 -0.5,0.8 v 0.2 h 0.2 v 0.2 h -0.2 v 0.1 c 0.2,0.4 0.4,0.7 0.8,0.9 h 0.1 c 1.1,0 1.8,-0.7 2,-2.2 l -0.1,-0.5 0.1,-0.1 -0.1,-0.6 0.2,-2.3 -0.6,-2.3 0.1,-3.4 -0.2,-8.3 0.1,-6.8 0.2,-1.4 v -0.1 l -0.4,-1.8 v -2.3 c -0.5,-1.6 -1.4,-2.3 -2.9,-2.3 -0.7,0.3 -1.1,0.7 -1.1,1.2 v 0.2 c 0,0.1 0.2,0.2 0.5,0.4 0.7,-0.1 1.1,-0.4 1.1,-0.7 h 0.2 v 0.1 c -0.4,1 -1.1,1.5 -2,1.5 H 280 c -0.4,0 -0.8,-0.2 -1.1,-0.7 v -0.7 c 0.2,-0.7 0.8,-1.6 1.9,-2.6 2.5,-3 4,-4.5 4.5,-4.5 1.3,-0.9 2.5,-1.3 3.5,-1.4 0.6,0 1,0.9 1.2,2.7 v 0.1 1.2 c 0.4,1 0.6,1.7 0.6,2.1 h 0.1 c 2.5,-3.4 4.5,-5.5 6.1,-6.1 1,-0.3 1.8,-0.4 2.4,-0.4 z m -19.4,40.6 0.1,0.1 v 0.1 l -0.1,0.1 h -0.1 l -0.1,-0.1 v -0.1 l 0.1,-0.1 z m 1.7,0.3 v 0.1 h 0.1 l 0.2,-0.2 v -0.1 h -0.1 z m 0.4,-2.3 0.1,0.1 v 0.1 l -0.1,0.1 h -0.1 l -0.1,-0.1 v -0.1 l 0.1,-0.1 z m 2.8,-35.3 v 0.2 h 0.4 v -0.2 z m 0.9,-0.4 v 0.4 l 0.6,-0.1 v -0.2 h -0.6 z m 0,0.5 v 0.5 h 0.2 V 273 Z m 0.4,1.7 v 0.4 h 0.1 l 0.2,-0.2 v -0.1 H 286 Z m 0.4,10.3 c 0.3,0 0.5,0.2 0.5,0.7 l -0.1,0.4 h 0.2 l 0.1,-0.6 -0.2,-0.9 h -0.1 z m 0.5,2.1 v 0.8 h 0.2 l 0.1,-0.6 z m 0.1,-0.8 v 0.2 l 0.2,0.2 v -0.5 H 287 Z m 0.3,25.1 v 0.5 h 0.2 v -0.5 z m 0.2,-0.7 v 0.1 l 0.4,0.1 v -0.2 z m 0.8,-0.1 0.4,0.1 v -0.4 h -0.1 z m 0.7,1 v 0.4 h 0.2 v -0.4 z m 1.4,-31.8 0.1,3.4 v 1.3 l -0.1,1.3 0.1,0.4 -0.1,1.1 0.1,0.7 -0.1,1.2 c 0,1.1 0.5,2.2 1.6,3.4 0,0.3 0.6,0.7 1.8,1.3 h 2.6 c 2.1,-1.6 3.4,-3.2 3.9,-4.8 0.7,-2.1 1.1,-4.5 1.1,-7.1 -0.1,0 -0.3,-0.7 -0.5,-2.2 -0.2,-1.2 -0.8,-2.4 -1.9,-3.4 -0.7,-0.5 -1.2,-0.8 -1.6,-0.8 H 296 c -0.6,0 -1.8,0.6 -3.5,1.9 -1,0.3 -1.7,1.2 -2.1,2.3 z m 1.5,14.8 v 0.4 h 0.2 v -0.4 z m 1.2,0.8 v 0.2 h 0.4 v -0.2 z m 2.2,-8.3 0.1,0.1 v 0.1 l -0.1,0.1 h -0.1 l -0.1,-0.1 v -0.1 l 0.1,-0.1 z m 1.4,-0.9 0.1,0.1 v 0.1 l -0.1,0.1 h -0.1 l -0.1,-0.1 v -0.1 l 0.1,-0.1 z m 0.5,-14.3 v 0.5 h 0.2 l 0.1,-0.5 z m 1.1,29 0.1,0.1 v 0.1 l -0.1,0.1 h -0.1 l -0.1,-0.1 V 301 l 0.1,-0.1 z m 0.6,-30 -0.2,0.2 -0.1,-0.1 -0.1,0.4 0.2,0.2 -0.2,0.2 v 0.2 h 0.2 l 0.6,-0.1 v -0.2 c -0.2,0 -0.4,-0.1 -0.4,-0.2 l 0.2,-0.2 v -0.1 z m 0.8,0.2 -0.1,0.4 c 0.3,0.2 0.5,0.4 0.5,0.6 h 0.4 v -0.5 c -0.2,0 -0.4,-0.1 -0.4,-0.4 z m 0.7,25.9 0.1,0.1 v 0.1 l -0.4,0.4 -0.1,-0.1 z m 0.2,-2.6 h 0.1 l 0.2,0.2 -0.1,0.1 -0.1,-0.1 h -0.1 l -0.1,0.1 h -0.1 v -0.1 z m 0.3,3.8 h 0.2 v 0.1 l -0.2,0.2 h -0.2 v -0.1 z m -0.2,-1.8 h 0.2 v 0.4 h -0.2 z m 0.6,-5.7 v 0.2 h 0.5 v -0.2 z m 0.7,-0.2 v 0.5 h 0.2 l 0.1,-0.5 z m 0.5,-0.5 v 0.1 h 0.4 v -0.4 h -0.1 z m 0.1,-3.6 v 0.2 h 0.4 v -0.2 z m 7.7,-12.4 h 0.1 l 0.2,0.2 v 0.2 h -0.1 l -0.2,-0.2 z m 1.1,5.3 0.1,0.1 0.1,-0.1 0.1,0.1 v 0.1 l -0.2,0.2 -0.4,-0.4 0.1,-0.1 h 0.2 z m 1.8,-4.3 c 0.4,0 0.6,0.3 0.7,0.8 l -0.1,0.1 h -0.1 c 0,-0.2 -0.2,-0.5 -0.6,-0.8 z"
   id="path16" />
	<path
   class="st0"
   d="m 301.7,291 0.1,0.1 v 0.1 l -0.1,0.1 h -0.1 l -0.1,-0.1 v -0.1 l 0.1,-0.1 z m 0.3,-2.2 c 0.3,0.1 0.5,0.3 0.5,0.4 v 0.1 h -0.1 c -0.3,-0.1 -0.5,-0.2 -0.5,-0.4 z m 1.4,-14 0.1,0.1 v 0.1 l -0.1,0.1 h -0.1 l -0.1,-0.1 v 0 l 0.1,-0.1 h 0.1 z m 0,22.4 0.3,0.4 -0.1,0.1 h -0.1 l -0.2,-0.4 z m 0.6,1.7 h 0.2 l -0.1,0.8 h -0.2 v -0.2 z m 1,-1.1 0.1,0.1 v 0.1 l -0.4,0.2 -0.2,-0.2 z m -0.1,-16.2 0.1,0.1 v 0.1 l -0.1,0.1 h -0.1 l -0.1,-0.1 v -0.1 l 0.1,-0.1 z m 0.9,15.6 v 0.1 l -0.2,0.2 -0.3,-0.2 0.1,-0.1 z m 17,-22.6 v 0.5 h 0.1 l 0.5,-0.4 h 0.5 c 1.7,1 2.5,2 2.5,3 v 1.7 c 0,0.6 -0.4,1.7 -1.3,3.1 0,0.5 -0.5,1.4 -1.6,2.7 -0.8,1 -1.6,1.6 -2.5,1.6 l -0.3,0.3 c -1.2,-0.2 -1.8,-0.7 -1.8,-1.5 V 285 c 0.2,-0.7 0.4,-1.1 0.6,-1.1 v 0.1 l -0.2,0.7 v 0.3 c 0,0.4 0.2,0.8 0.6,1 h 0.1 c 0.9,0 1.6,-1.1 2.1,-3.3 v -0.6 c -0.3,-1.6 -0.8,-2.4 -1.6,-2.4 h -0.7 c -0.5,0 -1.2,0.4 -2.1,1.3 v 1.8 l -0.2,1.9 v 0.1 l -0.1,4.7 0.6,1.1 v 0.7 c -0.2,0 -0.2,0.1 -0.2,0.4 l -0.4,0.4 v 0.4 l 0.4,-0.2 v 0.1 l -0.1,0.1 0.1,0.1 v 0.1 l -0.1,0.1 0.4,1.1 c -0.3,0 -0.5,0.2 -0.5,0.5 v 0.1 h 0.1 v -0.2 h 0.1 l 0.2,0.2 v 1 l -0.2,0.2 0.1,0.5 -0.1,0.6 0.1,0.1 v 0.1 l -0.1,0.1 v 0.1 l 0.1,0.1 v 0.1 l -0.4,0.8 0.1,0.6 -0.1,0.1 0.5,0.5 -0.1,0.1 h -0.1 l -0.2,-0.2 v 0.2 h 0.2 v 0.1 l -0.1,0.5 0.1,0.5 -0.7,0.7 0.1,0.1 -0.1,0.1 H 317 l -0.1,-0.1 c 0,0.2 -0.2,0.2 -0.7,0.2 0,0.3 -0.1,0.5 -0.4,0.5 l -0.6,-0.2 -0.4,0.8 0.1,0.1 c -0.6,0.7 -1.2,1 -1.8,1.1 -0.6,0.7 -1,1.2 -1,1.5 h -0.3 v -1.2 c 0,-1.3 0.1,-2 0.4,-2.3 l -0.1,-0.5 0.1,-1.1 -0.4,-0.4 0.1,-3.9 v -1 l -0.1,-1.1 c 0.2,-0.4 0.3,-1.6 0.3,-3.4 v -0.2 l -0.1,-1.3 0.1,-0.6 -0.3,-1.4 v -1.5 l -0.1,-0.1 0.1,-0.4 c -0.3,-1.2 -0.9,-1.8 -1.7,-1.8 h -0.4 c -0.7,0 -1.2,0.4 -1.6,1.2 0,0.4 0.3,0.6 0.7,0.6 h 0.3 c 0.2,0 0.4,-0.4 0.8,-1.1 h 0.1 l -0.5,1.3 0.1,-0.1 h 1 l 0.6,0.1 v 0.2 h -0.1 l -1.7,-0.1 c -0.5,0.3 -0.8,0.5 -1.1,0.5 h -0.1 c -0.3,0 -0.7,-0.2 -1.1,-0.6 l -0.5,0.4 -0.6,-0.3 v -0.2 l 0.6,-0.1 0.1,0.1 h 0.4 v -0.4 c 0,-1.3 0.6,-2.5 1.9,-3.4 1,-1.6 2.1,-2.9 3.1,-4 0.5,-0.2 1.1,-0.4 1.9,-0.5 l 1.1,-1 h 0.2 c 0.9,0 1.5,0.7 1.8,2.2 2.4,-2.1 4.2,-3.4 5.7,-3.4 z m -16.5,23.1 h 0.3 v 0.5 l -0.3,0.2 -0.1,-0.1 v -0.1 z m 0.3,-3.3 0.1,0.1 v 0.2 h -0.1 l -0.3,-0.2 0.1,-0.1 z m 0.4,4.1 0.2,0.5 -0.1,0.1 H 307 l -0.2,-0.4 z m 2.8,-11.4 0.1,0.1 v 0.1 l -0.1,0.1 h -0.2 v -0.1 z m -0.1,6.2 h 0.4 l 0.2,0.2 -0.1,0.1 h -0.1 l -0.4,-0.1 z m 3.4,-13.4 h 0.1 c 0.4,0 0.7,-0.2 0.8,-0.6 v -0.1 h -0.3 l -0.7,0.5 v 0.2 z m 0.2,1.6 v 0.1 h 0.1 l 0.4,-0.1 v -0.1 h -0.1 z m 1.3,8.8 v 0.1 l 0.2,0.2 h 0.1 v -0.4 h -0.3 z m 0.3,6 -0.1,0.4 h 0.2 v -0.4 z m 1.7,8.1 0.1,0.1 v 0.1 l -0.1,0.1 h -0.1 l -0.1,-0.1 v -0.1 l 0.1,-0.1 z m 0.1,-2.3 h 0.2 c 0,0.2 0.2,0.2 0.5,0.2 l 0.1,0.1 v 0.2 l -0.7,0.1 -0.2,-0.4 z m 0.2,0.9 0.3,0.2 v 0.1 l -0.3,-0.2 z m 0.5,-1.6 h 0.1 l 0.2,0.2 h -0.1 z m 0.4,2.4 h 0.2 l 0.3,0.2 v 0.2 l -0.6,0.1 v -0.1 z m 0.2,-2.6 h 0.4 l -0.2,0.2 H 318 Z m 0.6,-1.6 v 0.2 l -0.2,0.3 -0.2,-0.3 z m 0,-2.2 h 0.1 l 0.2,0.2 v 1.1 l -0.2,0.3 -0.2,-0.5 v -0.2 z m 0.6,1.8 c 0,0.2 0.2,0.4 0.5,0.4 l 0.1,0.1 v 0.1 l -0.1,0.1 h -0.1 l -0.6,-0.6 0.1,-0.1 z m 0,3.4 0.2,0.2 -0.2,0.2 -0.3,-0.4 0.1,-0.1 h 0.2 z m 0.3,-0.6 0.2,0.4 -0.1,0.1 h -0.1 l -0.2,-0.2 z m 0.4,-20.9 v 0.1 l -0.2,0.2 -0.1,-0.1 v -0.1 l 0.1,-0.1 z m 0.4,1.5 0.1,0.1 v 0.1 l -0.1,0.1 h -0.1 l -0.1,-0.1 v -0.1 l 0.1,-0.1 z m 0.1,20.3 h 0.2 v 0.4 l -0.2,0.3 -0.2,-0.3 c 0.1,-0.1 0.2,-0.2 0.2,-0.4 z m 0.4,-22.6 0.3,0.2 -0.3,0.2 -0.2,-0.4 0.1,-0.1 h 0.1 z m -0.3,1.3 h 0.1 l 0.2,0.2 -0.1,0.1 h -0.1 l -0.1,-0.1 z m 0.5,9.7 v 0.1 l -0.3,0.2 -0.2,-0.2 0.1,-0.1 z m 1.8,5.9 0.1,0.1 v 0.2 h -0.1 l -0.2,-0.2 0.1,-0.1 z m 1,-7.4 v 0.1 l -0.2,0.2 -0.1,-0.1 v 0 l 0.1,-0.1 h 0.2 z m 0.3,-2.2 h 0.4 v 0.2 h -0.4 z m 0.9,17.4 0.1,0.1 v 0.1 l -0.1,0.1 h -0.1 l -0.1,-0.1 v -0.1 l 0.1,-0.1 z m 0.1,-11.6 0.1,0.1 v 0.1 l -0.1,0.1 H 325 l -0.1,-0.1 v -0.1 l 0.1,-0.1 z m 0.3,9.5 0.1,0.1 v 0.1 l -0.1,0.1 h -0.1 l -0.1,-0.1 V 303 l 0.1,-0.1 z m 0,-12.4 h 0.2 l 0.2,0.2 -0.1,0.1 -0.4,-0.1 v -0.2 z m 0.2,14.4 0.1,0.1 v 0.1 l -0.1,0.1 h -0.1 l -0.1,-0.1 V 305 l 0.1,-0.1 z m 0.1,-0.8 0.1,0.1 v 0.1 l -0.1,0.1 h -0.1 l -0.1,-0.1 v -0.1 l 0.1,-0.1 z m 0.1,2 0.1,0.1 v 0.1 l -0.1,0.1 h -0.1 l -0.1,-0.1 v -0.1 l 0.1,-0.1 z m -0.1,-2.5 h 0.6 v 0.2 h -0.6 z m 0.4,-6.9 0.2,0.3 -0.4,0.2 -0.1,-0.1 V 297 Z m 1,-4 0.1,0.1 v 0.1 l -0.4,0.2 h -0.1 V 293 Z m 0.2,13.5 0.1,0.1 v 0.1 l -0.1,0.1 h -0.1 l -0.1,-0.1 v -0.1 l 0.1,-0.1 z m 1.7,-16.2 0.1,0.1 v 0.4 l -0.3,0.2 -0.1,-0.1 v -0.1 l 0.1,-0.1 v -0.1 l -0.1,-0.1 0.1,-0.1 h 0.2 z m 0.5,3.4 h 0.1 l 0.2,0.2 v 0.1 h -0.1 l -0.2,-0.2 z m 0.4,-8.2 0.1,0.1 v 0.1 l -0.1,0.1 h -0.1 l -0.1,-0.1 v -0.1 l 0.1,-0.1 z m 0.3,-4.4 h 0.4 v 0.3 h -0.4 z m 0.2,6 0.2,0.5 -0.1,0.1 h -0.1 l -0.2,-0.4 z m 0.3,-16.7 0.1,0.1 v 0.1 l -0.1,0.1 h -0.1 l -0.1,-0.1 v -0.1 l 0.1,-0.1 z m 2,12.1 v 0.1 l -0.2,0.2 -0.1,-0.1 v -0.1 l 0.1,-0.1 z m 0.4,0.6 0.2,0.3 -0.5,0.4 -0.1,-0.1 v -0.1 z m 0.4,17.5 0.1,0.1 v 0.1 l -0.1,0.1 h -0.1 l -0.1,-0.1 v -0.1 l 0.1,-0.1 z"
   id="path18" />
	<path
   class="st0"
   d="m 317.5,291.8 0.1,0.1 v 0.1 l -0.2,0.2 -0.1,-0.1 V 292 Z m 0.3,0.5 0.1,0.1 v 0.1 l -0.1,0.1 h -0.1 l -0.1,-0.1 v -0.1 l 0.1,-0.1 z m 1.2,-3.5 0.1,0.1 v 0.1 l -0.4,0.2 -0.1,-0.1 V 289 Z m 2.2,-4.1 0.2,0.3 v 0.1 h -0.2 l -0.3,-0.3 0.1,-0.1 z m 0,2.5 0.1,0.1 v 0.1 l -0.1,0.1 h -0.1 l -0.1,-0.1 v -0.1 l 0.1,-0.1 z m 0.8,1.2 0.1,0.1 v 0.1 l -0.3,0.2 -0.2,-0.2 z m 0.3,-2 v 0.1 l -0.2,0.2 -0.1,-0.1 v -0.1 l 0.1,-0.1 z m 0.5,5.1 0.1,0.1 v 0.1 l -0.1,0.1 h -0.6 v -0.2 z m 0.3,-3.4 v 0.2 l -0.5,0.1 -0.1,-0.1 v -0.1 l 0.1,-0.1 z m 0.9,-2.7 0.2,0.2 -0.1,0.1 H 324 l -0.2,-0.2 0.1,-0.1 z m -0.2,8.6 h 0.2 l 0.4,0.4 h -0.1 l -0.5,-0.1 z m 1,-13.7 0.1,0.1 v 0.1 l -0.3,0.5 h -0.2 v -0.4 z m -0.2,3.4 0.1,0.1 v 0.1 l -0.1,0.1 h -0.1 l -0.1,-0.1 v -0.1 l 0.1,-0.1 z m 0.4,1.5 c 0.2,0 0.4,0.4 0.4,1 h -0.2 l -0.4,-0.8 0.1,-0.1 h 0.1 z m 0,7.6 0.1,0.1 v 0.1 l -0.1,0.1 h -0.1 l -0.1,-0.1 v -0.1 l 0.1,-0.1 z m 0.5,-10 h 0.1 l 0.4,0.4 -0.1,0.1 h -0.1 l -0.3,-0.2 z m 0.6,7.2 0.1,0.1 v 0.1 l -0.1,0.1 H 326 l -0.1,-0.1 v -0.1 L 326,290 Z m 0.3,-12.6 0.1,0.1 v 0.1 l -0.1,0.1 h -0.2 v -0.1 z m 13.9,-3.1 h 0.2 l 0.3,0.2 -0.1,0.1 1.1,0.3 v 0.1 l -0.3,0.4 v 0.1 h 0.5 c 0,-0.2 0.1,-0.4 0.4,-0.4 3.3,0.6 5,1.6 5,2.9 -0.3,0.1 -0.6,0.3 -0.7,0.6 h 0.2 l 1,-0.4 v 0.1 l -0.1,0.1 v 0.1 l 0.4,0.4 -0.1,0.1 H 348 l -0.1,-0.1 h -0.1 v 0.4 c 0.6,0 0.8,0.2 0.8,0.7 v 0.1 l -1.7,2.3 h 1.5 v 0.2 h -1.5 c -1.9,0.8 -3.3,2.2 -4.1,4.1 -0.9,0.9 -1.6,1.4 -2.1,1.6 0,0.4 -0.2,0.6 -0.5,0.6 l 0.4,0.6 v 0.1 l -0.2,0.2 h -0.1 l -0.2,-0.2 0.1,-0.1 v -0.1 h -0.1 c -0.8,0.7 -1.8,1.7 -2.8,2.9 l -2.7,2.7 c 1.3,2 2.9,3 4.7,3 l 1.3,0.2 c 0.1,-0.8 0.2,-1.2 0.4,-1.2 l 0.1,0.1 -0.1,0.6 v 0.5 h 0.8 l 0.4,0.2 0.2,-0.2 h 0.3 c 0.2,0 0.3,0.2 0.5,0.7 h 0.1 c 0,-0.6 0.4,-1 1.2,-1 2.9,-1.4 4.5,-2.9 4.8,-4.5 l -0.1,-0.1 v -0.1 l 0.1,-0.4 h -0.1 c -0.5,-0.6 -1,-0.8 -1.6,-0.8 -0.3,0 -0.7,0.2 -1.1,0.5 h -0.1 v -0.1 c 0.4,-0.8 1,-1.2 1.6,-1.2 h 0.3 l 0.2,0.3 -0.2,0.2 h 0.2 v -0.2 h 0.6 l 0.7,0.6 v 0.4 h -0.2 v 0.1 c 0.4,0 0.6,0.4 0.6,1.1 v 0.6 c 0,0.7 -0.5,1.6 -1.6,2.8 -0.2,0 -0.4,0.2 -0.4,0.5 -0.3,0 -0.5,0.2 -0.5,0.6 l -1.4,1.3 -0.1,-0.5 c -0.4,0 -0.6,0.3 -0.8,1 l -0.1,0.1 h -0.4 c -0.2,0 -0.2,-0.1 -0.2,-0.4 h -0.1 l -0.3,0.2 0.1,0.1 v 0.1 c -0.3,0.1 -0.5,0.3 -0.5,0.7 -1.8,1.2 -3.3,1.8 -4.5,1.8 h -3.1 c -2.6,0 -4.4,-1 -5.6,-3.1 -1,-1.5 -1.8,-2.4 -2.4,-2.8 -0.6,-1.3 -1,-2.3 -1,-2.9 0.1,0 0.4,-0.3 0.7,-1 l -0.4,-0.4 -0.2,0.2 -0.1,-0.1 V 290 l 0.2,-0.4 v -1.5 l -0.1,-0.6 0.1,-0.1 -0.1,-0.1 h -0.1 l 0.4,-0.6 v -0.2 c -0.2,0 -0.4,-0.1 -0.4,-0.2 l 0.1,-0.1 h 0.1 l 0.1,0.1 h 0.1 v -0.1 l -0.2,-0.2 0.5,-1 c -1.1,0 -1.6,-0.2 -1.6,-0.4 l 0.1,-0.1 1.5,0.2 0.2,-0.4 -0.2,-0.2 0.8,-0.6 c 0.4,-1.8 1.3,-3.3 2.5,-4.5 1.4,-1.4 3.1,-2.6 5.1,-3.5 l 0.1,0.1 0.4,-0.5 h -0.4 l -0.1,0.1 h -0.1 v -0.1 c 0,-0.2 0.2,-0.2 0.6,-0.2 0,-0.3 0.1,-0.4 0.3,-0.4 l 1.1,1 0.2,-0.2 0.1,0.1 0.6,-0.2 -0.1,-0.4 h 0.1 l 0.4,-0.1 0.8,0.3 v -0.7 z m -13.6,12.7 0.1,0.1 v 0.1 l -0.1,0.1 h -0.1 l -0.1,-0.1 v -0.1 l 0.1,-0.1 z m 1.3,-4.4 0.1,0.1 v 0.1 l -0.2,0.3 -0.1,-0.1 v -0.1 z m 0.1,0.5 0.1,0.1 v 0.1 l -0.1,0.1 H 328 l -0.1,-0.1 v -0.1 l 0.1,-0.1 z m 4.2,-8.4 c 0.3,0 0.5,0.3 0.6,1 l -1.1,1 -0.4,-0.1 c -0.9,0 -1.5,0.4 -1.8,1.2 h -0.1 l -0.4,-0.3 h -0.6 v -0.1 c 0.1,-0.3 0.9,-0.7 2.4,-1.1 l 0.1,-0.1 v -0.1 h -0.5 v -0.2 h 0.6 v 0.2 h 0.1 v -0.2 l -0.1,-0.1 0.4,-0.3 0.4,0.1 c 0,-0.2 0.2,-0.3 0.6,-0.4 v -0.1 c -0.3,0 -0.5,-0.1 -0.5,-0.2 l 0.1,-0.1 h 0.2 z m -3,11.8 0.4,0.4 h 0.5 v -0.1 l -0.1,-0.1 0.1,-0.1 v -0.2 H 330 l -0.1,0.1 -0.1,-0.1 h -0.1 z m 1,-10.4 0.2,0.4 h -0.2 l -0.2,-0.2 0.1,-0.1 h 0.1 z m 0.3,-8.6 0.1,0.1 v 0.1 l -0.1,0.1 h -0.1 l -0.1,-0.1 v -0.1 l 0.1,-0.1 z m 0.3,6 0.1,0.1 v 0.1 l -0.4,0.3 -0.1,-0.1 v -0.1 z m 0.2,-1.3 h 0.2 v 0.2 l -0.2,0.2 -0.1,-0.1 z m 0.4,1.9 0.1,0.1 v 0.1 l -0.4,0.2 h -0.1 z m 0.6,-0.8 v 0.4 l -0.4,0.4 -0.1,-0.1 v -0.1 z m 0.1,24.6 v 0.1 h 0.3 l 0.6,-0.1 v -0.4 H 333 c -0.5,0 -0.8,0.2 -0.8,0.4 z m 0.5,-27.3 0.1,0.1 v 0.1 l -0.2,0.3 h -0.3 V 271 Z m -0.1,3.5 0.1,0.1 v 0.1 l -0.1,0.1 h -0.1 l -0.1,-0.1 v -0.1 l 0.1,-0.1 z m -0.3,24.6 v 0.6 l 0.6,-0.1 v 0.2 h 0.2 v -0.2 H 333 l 0.1,-0.1 v -0.4 H 333 l -0.1,0.1 h -0.1 z m 2.2,-17.9 h -0.6 v 0.4 h 0.2 v 0.1 c -0.3,0 -0.7,1.5 -1.2,4.6 l -0.4,5.1 v 0.1 c 0.4,0.4 0.6,1 0.7,1.6 0.2,0 0.3,0.3 0.4,0.8 h 0.1 l 5.2,-5.1 c 0.3,0 0.5,-0.2 0.7,-0.6 l -0.1,-1.7 h 0.1 l 0.1,0.1 h 0.1 V 285 c -0.2,0 -0.3,-0.2 -0.4,-0.6 l 0.3,-1 V 283 c -0.3,0 -0.5,-0.2 -0.5,-0.6 h -0.6 v -0.2 h 0.7 l -0.1,-0.1 V 282 c 0.3,-0.1 0.5,-0.3 0.5,-0.7 h -0.4 l -0.6,0.1 v -0.3 c 0.5,0 0.8,-0.1 0.8,-0.2 l -0.1,-0.4 h 0.1 l 0.4,-0.2 h 0.4 v 0.1 l -0.2,1.1 h 0.1 l 0.7,-0.1 0.4,0.1 v -0.8 c 0,-0.7 -0.9,-1.4 -2.7,-2.1 h -0.2 c -2,0.4 -3,0.8 -3,1.2 z m -1.2,-9.6 0.1,0.1 v 0.1 l -0.4,0.4 v 0 -0.1 z m 0.2,-8.2 0.2,0.2 -0.1,0.1 h -0.1 l -0.2,-0.2 0.1,-0.1 z m 0.9,11.4 0.1,0.1 v 0.1 c 0,0.2 -0.4,0.4 -1.2,0.6 v -0.1 l 0.3,-0.5 0.1,0.1 h 0.1 z m -1.1,19.6 v 0.3 l 0.3,0.2 h 0.1 v -0.4 z m 0.2,5.4 v 0.3 h 0.4 v -0.3 z m 0.3,-33.1 0.1,0.1 v 0.1 l -0.1,0.1 h -0.1 l -0.1,-0.1 v -0.1 l 0.1,-0.1 z m -0.2,11.7 0.1,0.1 v 0.1 l -0.1,0.4 h 0.1 l -0.1,0.1 v 0.5 h 0.2 c 0,-0.6 0.2,-1 0.6,-1 l -0.1,-0.6 v -0.1 h 0.2 v -0.1 l -0.4,-0.4 c -0.2,0 -0.3,0.4 -0.5,1 z m 0.4,13.5 h 0.3 v 0.1 l -0.3,0.2 z m 0.1,-24.5 h 0.4 v 0.2 h -0.4 z m 0.4,-6.7 0.2,0.5 h -0.1 l -0.4,-0.4 0.1,-0.1 z m 0.5,0.7 0.1,0.1 v 0.1 l -0.2,0.2 -0.2,-0.2 z m -0.3,4.3 h 0.4 v 0.2 h -0.4 z m 0.1,3.4 0.5,0.4 v 0.1 H 335 l -0.4,-0.4 z m 0.4,-1.4 0.1,0.1 v 0.1 l -0.2,0.2 -0.1,-0.1 v -0.1 z m 0.2,-2.1 0.5,0.4 h -0.4 l -0.2,-0.2 z m 0.3,12.2 v 0.1 h 0.4 v -0.4 H 336 Z m 0.3,11.6 0.1,0.1 v 0.1 l -0.1,0.1 h -0.1 l -0.1,-0.1 v -0.1 l 0.1,-0.1 z m -0.1,-23.4 h 0.1 l 0.2,0.2 -0.1,0.1 H 336 l -0.1,-0.1 z m 0.2,18.1 0.1,0.1 v 0.1 l -0.1,0.1 H 336 l -0.1,-0.1 v -0.1 l 0.1,-0.1 z m 0.2,-17.1 0.4,0.5 -0.2,0.2 -0.4,-0.5 z m 0.4,4.4 0.1,0.1 v 0.5 h -0.2 l -0.1,-0.5 0.1,-0.1 z m 0.1,-9.7 0.1,0.1 v 0.1 l -0.2,0.2 -0.1,-0.1 v -0.1 z m 0,3 0.1,0.1 v 0.1 l -0.1,0.1 h -0.2 v -0.1 z m -0.2,19.3 h 0.4 l 0.3,0.2 v 0.1 l -0.5,0.4 -0.1,-0.1 0.1,-0.1 V 284 Z m 0.8,-16.9 0.1,0.1 v 0.1 l -0.1,0.1 h -0.1 l -0.1,-0.1 v -0.1 l 0.1,-0.1 z m -0.3,0.5 c 0.7,0.1 1.1,0.3 1.1,0.5 l -0.1,0.1 H 338 c -0.5,-0.2 -0.8,-0.4 -0.8,-0.5 v -0.1 z m 0.1,8.3 v 0.4 l 0.2,-0.3 v -0.1 z m 1,-14.6 0.4,0.2 0.4,-0.2 0.1,0.1 v 0.1 l -0.1,0.1 v 0.1 l 0.4,0.4 v 0.1 H 339 l -0.8,-0.5 h -0.6 v -0.2 z m 0.1,34.9 c 0.2,0 0.2,0.1 0.2,0.4 l 0.5,-0.4 c 0,0.3 0.2,0.4 0.7,0.4 v 0.1 l -0.4,0.1 -0.4,-0.1 -1.1,0.1 -0.3,-0.2 v -0.1 l 0.1,0.1 h 0.5 v -0.4 z m -0.4,-22.5 h 0.2 l 0.2,0.2 -0.2,0.2 z m 0.2,14.4 h 0.1 l 0.1,0.1 0.1,-0.1 h 0.4 v 0.1 l -0.6,0.6 z m 0.1,13.5 v 0.4 h 0.2 v -0.4 z m 0.4,-34.5 v 0.1 l -0.2,0.2 -0.1,-0.1 v -0.1 l 0.1,-0.1 z m -0.2,1.3 0.1,0.1 v 0.1 l -0.1,0.1 h -0.1 l -0.1,-0.1 v -0.1 l 0.1,-0.1 z m -0.1,7.7 v 0.2 h 0.2 l 0.2,-0.2 v -0.1 z m 0.4,-7.9 0.1,0.1 v 0.1 l -0.1,0.1 h -0.1 l -0.1,-0.1 v -0.1 l 0.1,-0.1 z m 0.4,-8.1 0.1,0.1 v 0.1 c 0,0.1 -0.2,0.2 -0.5,0.4 l -0.1,-0.1 V 260 Z m -0.2,29.3 -0.1,0.4 h 0.3 l 0.1,-0.4 z m 0.5,-15.1 h 0.4 l 0.4,0.4 H 340 l -0.5,-0.1 -0.1,0.5 h -0.1 l -0.1,-0.1 H 339 c 0.1,-0.5 0.2,-0.7 0.4,-0.7 z m -0.3,17.4 c 0.2,0 0.3,0.3 0.4,0.8 l -0.1,0.1 h -0.1 l -0.1,-0.1 0.1,-0.1 v -0.1 z m 0.2,2 h 0.2 l 0.1,0.7 -0.1,0.1 h -0.1 l -0.2,-0.3 z m 1.8,-22.2 h 0.1 l 0.2,0.2 -0.6,0.5 c 0,0.3 -0.1,0.4 -0.3,0.4 v 0.6 l 0.5,-0.1 0.1,0.1 1.5,-0.1 h 2.2 v 0.2 h -0.6 l -1.4,0.3 -0.1,-0.1 h -0.1 l -0.7,0.1 -0.8,-0.1 -0.4,0.1 v 0.2 h 0.7 l 0.2,0.2 v 0.1 c -0.4,0 -0.6,0.1 -0.8,0.3 l -0.3,-0.3 v 0.1 c -0.4,-0.1 -0.6,-0.2 -0.6,-0.4 l 0.5,-0.1 v -0.2 h -0.8 v -0.3 h 0.6 c 0.2,0 0.3,-0.5 0.4,-1.4 h 0.1 l 0.1,0.1 c 0.2,0.1 0.3,-0.1 0.3,-0.4 z m -1.3,-8.5 0.1,0.1 v 0.1 l -0.1,0.1 h -0.1 l -0.1,-0.1 v -0.1 l 0.1,-0.1 z m 0,5.8 v 0.4 h -0.2 v -0.1 z m -0.2,3.4 h 0.1 l 0.3,0.3 -0.1,0.1 h -0.1 l -0.1,-0.1 v -0.3 z m 0,10.6 v 0.4 l 0.1,-0.1 h 0.1 l 0.1,0.1 v -0.4 l -0.1,0.1 h -0.1 z m 0.7,-17.4 -0.5,0.5 -0.1,-0.1 v -0.2 z m -0.3,2 0.1,0.1 v 0.1 l -0.1,0.1 h -0.1 l -0.1,-0.1 v -0.1 l 0.1,-0.1 z m -0.1,25.8 h 0.2 v 0.5 h -0.2 z m 0.1,0.8 h 0.1 l 0.4,2.1 -0.1,0.1 0.6,0.1 v 0.3 l -0.2,0.2 -0.4,-0.1 0.2,0.4 -0.2,0.3 v 0.7 h -0.2 l -0.2,-1.4 0.2,-0.3 v -0.1 l -0.1,-0.1 0.1,-0.1 V 295 H 340 Z m 0.2,-10.8 -0.1,0.6 c 0.2,0 0.4,0.1 0.4,0.2 h 0.3 l 0.6,-0.1 v 0.2 c -0.3,0 -0.5,0.1 -0.5,0.3 v 0.1 h 0.2 v 0.2 h -0.7 v 0.5 c 0,0.9 -0.1,1.6 -0.2,1.9 v 0.1 h 0.1 c 1,-1.4 1.5,-2.6 1.5,-3.5 v -0.7 l -0.1,0.1 h -1.5 z m -0.1,7.7 h 0.2 l 0.1,0.6 h -0.1 l -0.2,-0.2 z m 0.7,-32 h 0.4 v 0.2 l -0.9,0.1 v -0.2 z m -0.6,23.3 v 0.8 l 1.5,-0.2 -0.1,-0.6 -1.2,0.1 z m 0.3,-21.8 h 0.1 c 0.1,0 0.2,0.2 0.4,0.5 l -0.1,0.1 h -0.1 l -0.2,-0.4 V 260 Z m 0.5,23.1 h 0.1 v 0.2 h -0.4 z m 0.3,-9 0.1,0.1 v 0.1 l -0.1,0.1 h -0.1 l -0.1,-0.1 v -0.1 l 0.1,-0.1 z m 0.1,-8 0.1,0.1 v 0.2 l -0.2,0.2 -0.1,-0.1 v -0.1 l 0.1,-0.1 -0.1,-0.1 0.1,-0.1 z m 0.1,0.7 v 0.3 l -0.2,0.2 -0.1,-0.1 v -0.1 z m -0.2,4.8 h 0.4 l -0.3,0.2 h -0.1 z m 0.4,26 v 0.1 l -0.3,0.3 h -0.1 v -0.3 z m 0.3,-37.1 0.1,0.1 h 0.9 l 0.1,-0.1 h 0.1 l 0.1,0.1 v 0.4 l -0.4,0.4 h -0.4 v -0.2 h 0.4 V 261 h -0.4 l -1.2,0.1 v -0.2 c 0.5,-0.1 0.7,-0.2 0.7,-0.4 z m -0.3,4.4 0.2,0.6 h -0.2 l -0.2,-0.5 0.1,-0.1 z m 0.2,5.8 0.1,0.1 v 0.1 l -0.1,0.1 h -0.1 l -0.1,-0.1 v -0.1 l 0.1,-0.1 z m 0.8,-11.5 0.1,0.1 v 0.2 h -0.1 l -0.2,-0.2 0.1,-0.1 z m -0.3,9.2 h 0.4 l -0.2,0.2 -0.1,-0.1 v -0.1 z m 1.1,2.7 0.5,0.5 -0.1,0.1 h -0.1 l -0.4,-0.1 -0.4,0.1 -0.1,-0.1 v -0.1 z m 0.3,-4.7 0.4,0.1 v 0.2 h -1.1 v -0.2 z m -0.2,-6.5 0.1,0.1 v 0.1 l -0.1,0.1 h -0.1 l -0.1,-0.1 V 260 l 0.1,-0.1 z m 0.1,3.7 0.1,0.1 v 0.1 l -0.4,0.2 -0.1,-0.1 v -0.1 z m -0.1,13.8 v 0.3 l 0.2,0.2 h 0.2 v -0.2 l -0.2,-0.3 z m 0.5,-16.3 0.1,0.1 v 0.1 l -0.1,0.1 H 344 l -0.1,-0.1 v -0.1 l 0.1,-0.1 z m 0.5,4.6 v 0.2 l -0.5,0.1 -0.1,-0.1 v -0.1 l 0.1,-0.1 z m 0.4,-5.1 0.2,0.4 -0.2,0.2 h -0.1 l -0.1,-0.1 h -0.1 z m -0.1,0.7 0.1,0.1 v 0.4 h -0.1 l -0.2,-0.2 z m 0.7,6.7 0.4,0.6 -0.1,0.1 h -0.1 l -0.4,-0.5 z m -0.2,13.1 v 0.4 l 1,-0.2 v -0.4 h -0.5 z m 0.6,-14.4 h 0.3 l 0.1,0.4 -0.8,0.4 -0.1,-0.1 v -0.1 c 0.3,-0.2 0.5,-0.3 0.5,-0.6 z m -0.2,-0.1 0.1,0.1 v 0.1 l -0.1,0.1 h -0.1 l -0.1,-0.1 v -0.1 l 0.1,-0.1 z m -0.1,32 v 0.4 h 0.2 v -0.4 z m 0.3,-10.3 h 0.4 l -0.2,0.5 -0.4,-0.1 v -0.1 z m 0.6,-21.8 h 0.1 v 0.2 l -0.2,0.2 -0.1,-0.1 v -0.1 z m 0.5,-6.3 0.1,0.1 v 0.1 l -0.1,0.1 H 347 l -0.1,-0.1 v -0.1 l 0.1,-0.1 z m 1,11 h 0.2 l 0.4,1 h -0.1 l -0.5,-0.6 z m 0.4,-3 h 0.2 v 0.8 l -0.2,0.3 -0.1,-0.1 0.1,-0.1 z m 0.7,-0.5 0.1,0.1 v 0.1 c -0.1,0.4 -0.2,0.6 -0.4,0.6 h -0.1 c 0.1,-0.6 0.3,-0.8 0.4,-0.8 z m 0.8,4.4 0.2,0.5 -0.4,0.2 -0.1,-0.1 v -0.4 z m 0,-5.5 0.1,0.1 V 267 H 350 l -0.2,-0.3 0.1,-0.1 z"
   id="path20" />
	<path
   class="st0"
   d="m 345.3,285.7 c 0.4,0.1 0.6,0.2 0.6,0.4 v 0.1 h -0.1 c -0.5,-0.1 -0.7,-0.2 -0.7,-0.4 l 0.1,-0.1 z m 1,4.1 0.5,0.6 -0.1,0.1 h -0.1 l -0.5,-0.6 0.1,-0.1 z m 1.5,-9.1 0.1,0.1 v 0.1 c -0.1,0.3 -0.3,0.4 -0.7,0.4 v -0.1 z m 0.3,-0.6 h 0.4 v 0.2 h -0.4 z m 0.5,11.4 c 0,0.2 0.1,0.2 0.4,0.2 l 0.1,0.1 v 0.1 L 349,292 h -0.1 c -0.3,-0.1 -0.5,-0.2 -0.5,-0.4 z m -0.1,-9.9 h 0.9 c 0.2,0 0.3,0.2 0.4,0.6 l -0.1,0.1 h -0.1 l -0.2,-0.5 h -0.8 v -0.2 z m 0.1,1.4 h 0.1 l 1,0.3 h 0.5 v 0.2 l -0.4,0.1 -1.2,-0.4 z m 0,3.7 h 0.1 l 0.2,0.3 -0.2,0.2 -0.1,-0.1 z m 1,2.1 0.3,0.2 -0.3,0.2 -0.2,-0.4 0.1,-0.1 h 0.1 z m 0.3,11.9 0.1,0.1 v 0.1 l -0.1,0.1 h -0.1 l -0.1,-0.1 v -0.1 l 0.1,-0.1 z m 6.2,-25.8 0.6,0.1 h 1.6 c 0.9,0 1.6,1.1 2,3.2 v 0.4 l -0.3,3 0.4,2.6 -0.4,3.1 v 2.8 l -0.2,0.4 v 2.5 c 0.4,0.5 0.8,1.8 1,3.9 0.5,0.8 1.1,1.2 1.8,1.2 1.6,0 3.2,-0.8 4.9,-2.5 0,-0.2 0.5,-1 1.6,-2.5 0.3,-0.6 0.6,-2.5 0.8,-5.7 V 287 c 0,-5.9 0.4,-9.3 1.1,-10.2 1.2,-1.2 2.5,-1.8 3.9,-1.8 0.4,0.1 0.6,0.4 0.6,1 l -0.2,5.8 h -0.1 v 3 l 0.1,3.3 h 0.2 v 0.5 h -0.2 v 3.2 l -0.4,0.5 v 0.5 c 0.7,3.3 1.6,4.9 2.7,4.9 h 0.2 c 1.8,-0.4 2.7,-1.3 2.7,-2.5 -0.1,-0.5 -0.4,-0.7 -1,-0.7 -0.3,0.2 -0.4,0.5 -0.4,0.8 H 379 l -0.2,-0.2 c 0,-0.6 0.2,-1.1 0.7,-1.3 h 0.4 c 0.5,0 1,0.3 1.5,0.8 v 0.8 c 0,1.9 -1.5,3.8 -4.6,5.7 0,0.4 -0.9,0.8 -2.7,1.1 l -0.1,0.1 h -0.1 c -1.5,-0.3 -2.6,-0.7 -3.3,-1.3 -0.6,-0.6 -1,-1.4 -1,-2.6 l 0.1,-0.4 -0.2,-0.2 v -1.2 l -0.3,-0.2 c -1,1.2 -3,3 -6.2,5.5 -0.4,0.6 -1.1,0.8 -2.2,0.8 h -0.5 c -1.7,0 -2.6,-0.2 -2.6,-0.7 l -2,-1 c -0.8,-1.2 -1.2,-2.9 -1.2,-4.9 l 0.2,-1.2 -0.4,-3.4 v -1.3 l -0.3,-1.3 v -0.4 l 0.1,-4.7 -0.1,-3.3 c 0,-0.6 -0.6,-1.1 -1.7,-1.5 -0.7,0 -1.2,0.5 -1.5,1.6 0.1,0.4 0.4,0.6 0.9,0.6 l 0.5,-0.5 v 0.4 c -0.4,0.6 -0.8,0.9 -1.3,0.9 h -0.2 l -0.9,-0.3 0.1,-0.6 -0.1,-0.6 0.1,-0.1 0.1,0.1 h 0.2 v -0.4 H 350 l -0.3,-0.3 v -0.1 l 0.6,0.1 v -0.2 l -0.3,-0.4 c 1.9,-2.3 3.3,-3.5 4.2,-3.5 0.4,-0.4 1,-0.6 1.8,-0.6 v -0.2 z m -6.2,16 h 0.5 v 0.2 h -0.5 z m 1,-7.1 0.1,0.1 v 0.1 l -0.1,0.1 h -0.7 v -0.2 z m 0.8,8.3 c 0.3,0.1 0.5,0.2 0.5,0.4 l -0.3,0.3 c 0,-0.2 -0.1,-0.3 -0.4,-0.3 l -0.1,-0.1 v -0.1 l 0.1,-0.1 h 0.2 z m 0.4,-4.9 0.1,0.1 v 0.1 l -0.1,0.1 H 352 l -0.1,-0.1 v -0.1 l 0.1,-0.1 z m 0.9,-14.1 h 0.4 v 0.2 H 353 Z m 0.9,0 0.1,0.1 h 0.1 l 0.1,-0.1 h 0.1 l 0.3,0.5 -0.1,0.1 h -0.3 l -0.5,-0.5 z m 1,0.8 0.1,0.1 v 0.1 l -0.5,0.4 h -0.3 v -0.1 c 0.1,-0.1 0.3,-0.3 0.7,-0.5 z m 0.4,-1.3 0.1,0.1 h 0.1 l 0.1,-0.1 0.1,0.1 v 0.1 l -0.4,0.4 -0.4,-0.5 0.1,-0.1 z m 0.8,1.3 h 0.1 v 0.1 l -0.2,0.3 h -0.1 v -0.1 z m 0.5,9.6 v 0.1 l 0.2,0.3 h 0.3 v -0.1 l -0.3,-0.3 z m 0.7,5.4 -0.1,0.6 v 0.2 l 0.2,-0.2 v -0.6 z m 0.2,-6.1 v 0.2 h 0.4 v -0.2 z m 0.1,3.2 v 0.5 h 0.3 V 286 Z m 1.8,13.5 v 0.5 h 0.3 v -0.5 z m 1.2,0.6 v 0.4 h 0.3 v -0.4 z m 0.5,3.8 0.2,0.2 -0.1,0.1 h -0.1 l -0.2,-0.3 0.1,-0.1 h 0.1 z m 2,-15.3 0.1,0.1 v 0.1 l -0.1,0.1 h -0.4 v -0.3 z m 1.2,-14.3 h 0.1 l 0.3,0.2 v 0.1 h -0.1 l -0.3,-0.2 z m 1.9,9.2 0.1,0.1 v 0.1 l -0.8,0.2 v -0.1 c 0,-0.1 0.2,-0.2 0.7,-0.3 z m 0.6,-6.6 0.3,0.4 v 1.2 h -0.3 v -1 l -0.2,-0.4 z m 5.3,27 0.1,0.1 v 0.1 l -0.1,0.1 H 372 l -0.1,-0.1 V 304 l 0.1,-0.1 z m 1,-22 c 0,0.3 -0.1,0.6 -0.4,0.8 v 0.6 h 0.5 v -0.1 l -0.2,-0.4 0.4,-0.4 v -0.6 h -0.3 z m 0,-2.2 v 0.1 h 0.4 v -0.4 h -0.1 z m 2.8,20.2 v 0.2 h 0.6 v -0.2 z m 1,0.6 -0.1,0.5 h 0.2 v -0.5 z m 1,-25.7 h 0.4 v 0.3 h -0.4 z m 0.1,1.4 h 0.1 c 0.5,0.1 0.7,0.2 0.7,0.4 l -0.1,0.1 h -0.1 c -0.4,-0.1 -0.6,-0.2 -0.6,-0.4 z m 0.8,4 0.3,0.2 -0.4,0.3 -0.1,-0.1 v -0.1 z m 0.2,-1.5 0.1,0.1 v 0.1 L 379,279 h -0.1 l -0.1,-0.1 v -0.1 l 0.1,-0.1 z m -0.3,12.7 h 0.3 l 1.5,0.8 -0.1,0.1 v 0.4 l 0.2,0.4 v 0.3 h -0.2 c 0,-0.2 -0.3,-0.5 -1,-1 l 0.2,-0.2 c -0.6,-0.3 -0.8,-0.5 -0.8,-0.6 v -0.2 z m 1.5,-12.2 0.1,0.1 v 0.1 l -0.1,0.1 h -0.1 l -0.1,-0.1 v -0.1 l 0.1,-0.1 z m 0,5.3 0.1,0.1 v 0.1 l -0.3,0.3 -0.1,-0.1 v -0.1 z m 0.4,6 0.1,0.1 v 0.3 h -0.1 l -0.2,-0.3 0.1,-0.1 z m 0.5,3.1 h 0.4 l 1,0.8 -0.2,0.3 c 0,-0.1 -0.3,-0.3 -0.9,-0.5 z m 0.6,-11.9 0.5,0.6 -0.1,0.1 H 382 c 0,-0.2 -0.1,-0.3 -0.4,-0.3 l -0.1,-0.1 v -0.1 z m 0,2.4 0.1,0.1 v 0.1 l -0.1,0.1 h -0.1 l -0.1,-0.1 v -0.1 l 0.1,-0.1 z m 0.1,8.5 h 0.1 l 0.3,0.2 v 0.1 H 382 l -0.2,-0.2 z"
   id="path22" />
	<path
   class="st0"
   d="m 374.1,267.2 0.1,0.1 v 0.1 l -0.2,0.2 -0.1,-0.1 v -0.1 z m 0.9,-2.6 0.7,0.1 v 0.2 h -0.6 l -0.2,-0.2 z m 1.2,3.9 0.1,0.1 v 0.1 l -0.1,0.1 h -0.1 l -0.1,-0.1 v -0.1 l 0.1,-0.1 z m 0.4,-5.4 0.2,0.4 -0.1,0.1 h -0.1 l -0.2,-0.4 0.1,-0.1 z m 0.9,8.4 0.1,0.1 v 0.2 h -0.1 l -0.2,-0.2 0.1,-0.1 z m 2.5,23.4 0.1,0.1 v 0.1 l -0.2,0.2 -0.1,-0.1 v -0.1 z m -0.1,5.8 h 0.2 l 0.4,0.4 v 0.1 h -0.4 l -0.2,-0.2 0.1,-0.1 z m 0.4,-4.8 v 0.4 H 380 v -0.1 z m 0.6,-5.6 0.1,0.1 v 0.1 l -0.1,0.1 h -0.1 l -0.1,-0.1 v -0.1 l 0.1,-0.1 z m 8.3,-29 c 1.9,0.3 2.8,1 2.8,2 v 0.6 c 0,0.4 -0.3,0.8 -0.8,1.1 h -0.8 l -0.5,-0.5 c 0.1,-0.5 0.2,-0.7 0.4,-0.7 h 0.2 v 0.1 l -0.1,0.1 v 0.1 h 0.2 v 0.1 c 0.3,0 0.5,-0.4 0.5,-0.9 l -0.7,-0.4 c -0.8,0 -1.5,1.1 -2.1,3.2 l -0.6,3.2 v 0.6 l 0.2,0.8 -0.2,2.2 0.1,2.3 c -0.1,2.3 -0.2,3.7 -0.4,4.1 l 0.1,3.8 -0.1,0.9 c 0.2,0 0.2,0.4 0.2,1.2 0.2,0 0.2,0.1 0.2,0.4 l 4.9,-5.2 c 3.2,-3 5.7,-4.6 7.5,-4.6 l 2.7,-0.2 c 1.3,0.2 1.9,0.4 1.9,0.6 -2,0.9 -3.6,1.5 -4.9,1.8 -0.9,0.3 -2.7,1.5 -5.3,3.6 l -3.8,3.2 c 0.3,0.5 1.6,1.3 3.9,2.2 1.1,1.6 1.7,2.8 1.9,3.4 l 2,2.9 c 1.4,3 2.6,4.6 3.8,4.6 1.8,0 3,-0.8 3.4,-2.5 V 295 l -0.5,-0.5 h -0.5 c -0.4,0.2 -0.6,0.5 -0.6,1.2 H 404 l -0.1,-0.6 c 0,-0.9 0.5,-1.4 1.6,-1.5 h 0.2 c 0.8,0 1.4,0.8 1.6,2.3 v 0.6 c -0.7,2 -2.2,3.8 -4.7,5.5 -0.9,0.4 -1.4,0.6 -1.8,0.6 -2.5,0 -4.7,-2.3 -6.6,-6.9 0,-0.4 -0.5,-1.5 -1.5,-3.3 -0.5,-1.5 -1.3,-2.5 -2.3,-3 l -1.6,-0.8 h -0.6 l -0.5,0.5 -0.1,2.9 0.1,4.7 c -0.3,0 -0.5,0.7 -0.6,2.1 l -0.7,0.8 0.2,0.8 h -0.2 l -0.2,-0.6 h -0.5 v 0.1 h 0.2 v 0.2 h -0.6 c -0.6,0.4 -0.9,0.6 -0.9,0.7 h 0.8 v 0.2 h -0.4 v 0.9 h -0.2 c 0,-0.4 -0.1,-0.6 -0.4,-0.6 0,0.3 -0.1,0.5 -0.2,0.5 l -0.1,-0.4 -1.1,0.6 -1.3,-5.4 V 296 h -0.4 v 1.2 l -0.2,0.2 h -0.1 v -0.1 l -0.2,-1.6 0.2,-1.4 -0.2,-0.2 V 294 h 0.2 l 0.1,-1.2 -0.1,-1.3 0.1,-0.4 h 0.2 v 0.1 l -0.1,0.1 0.2,2 h 0.2 c 0,-0.3 0.1,-0.5 0.4,-0.5 l -0.6,-0.9 h 0.1 l 0.1,0.1 h 0.1 v -0.2 l -0.1,-0.1 v -0.1 l 0.2,-0.2 V 291 h -0.2 v -0.8 c 0.2,-0.3 0.4,-0.6 0.4,-1.1 v -1.2 l -0.2,-0.9 -0.1,-5.6 c 0.4,-1.8 0.6,-2.7 0.7,-2.7 h 0.1 v -0.2 l -0.8,-1.2 v -3.8 l 0.2,-0.2 0.1,0.1 0.1,-0.1 v -0.2 l -0.1,0.1 h -0.2 l -0.1,-0.6 c 0.3,-0.4 0.5,-0.8 0.5,-1.3 v -1.2 h -0.4 v -0.2 h 0.4 v -0.4 l -0.2,-0.4 0.2,-0.2 v -0.2 c 0,-0.2 -0.1,-0.2 -0.4,-0.2 v -0.2 h 0.4 l 0.1,0.1 h 0.1 c 0,-1.1 0.7,-2.5 2.1,-4.2 0.3,-0.9 1.2,-1.7 2.8,-2.3 z m -7.6,9.3 h 0.1 v 0.1 l -0.2,0.2 h -0.1 v -0.1 z m -0.2,-2.1 h 0.1 l 0.4,0.4 v 0.4 h -0.2 z m 0,25.7 v 0.5 c 0.2,0 0.4,0.1 0.4,0.2 h 0.1 v -1.1 h -0.1 z m 0.6,8.2 0.1,0.1 v 0.1 l -0.1,0.1 h -0.1 l -0.1,-0.1 v -0.1 l 0.1,-0.1 z m 0.1,-40.4 0.1,0.1 v 0.1 l -0.1,0.1 h -0.2 v -0.1 z m 0.2,5 0.2,0.2 -0.1,0.1 h -0.1 l -0.2,-0.2 0.1,-0.1 z m 1.6,36.4 0.1,0.1 v 0.1 l -0.1,0.4 h -0.2 v -0.4 z m 0,-1.2 h 0.2 v 0.5 h -0.2 z m 0.4,0 h 0.1 l 0.2,0.2 v 0.1 h -0.2 z m 1,-6.4 -0.1,0.6 h 0.4 v -0.6 z m 0.6,-31.3 0.2,0.2 v -0.5 z m 0.5,-0.9 v 0.7 c 0.2,0 0.3,-0.2 0.4,-0.7 z m 4.9,8.4 0.6,0.5 -0.1,0.1 h -0.1 c -0.4,-0.2 -0.5,-0.3 -0.6,-0.5 l 0.1,-0.1 z m 2.9,32.7 h 0.2 v 0.2 l -0.2,0.2 -0.1,-0.1 z m 0.7,-37.7 0.1,0.1 v 0.1 l -0.2,0.2 -0.1,-0.1 v -0.1 z m 0.3,-0.4 0.1,0.1 v 0.1 l -0.1,0.1 H 395 v -0.1 z m 3.9,10 v 0.5 l 0.2,-0.2 v -0.2 h -0.2 z m 1,0.3 v 0.4 h 0.2 v -0.4 z m 3.5,25.1 0.1,0.1 v 0.1 l -0.1,0.1 h -0.1 l -0.1,-0.1 v -0.1 l 0.1,-0.1 z m 2,-0.9 0.1,0.1 v 0.2 l -0.7,0.6 -0.1,-0.4 c 0.1,-0.3 0.4,-0.5 0.7,-0.5 z m 0.5,-1 0.1,0.1 v 0.1 l -0.4,0.4 h -0.1 v -0.1 z"
   id="path24" />
	<path
   class="st0"
   d="m 398.3,291.8 0.1,0.1 v 0.1 l -0.2,0.2 -0.1,-0.1 V 292 Z m 0.3,0.5 0.1,0.1 v 0.1 l -0.1,0.1 h -0.1 l -0.1,-0.1 v -0.1 l 0.1,-0.1 z m 1.2,-3.5 0.1,0.1 v 0.1 l -0.4,0.2 -0.1,-0.1 V 289 Z m 2.3,-4.1 0.2,0.3 v 0.1 h -0.2 l -0.3,-0.3 0.1,-0.1 z m 0,2.5 0.1,0.1 v 0.1 l -0.1,0.1 H 402 l -0.1,-0.1 v -0.1 l 0.1,-0.1 z m 0.7,1.2 0.1,0.1 v 0.1 l -0.3,0.2 -0.2,-0.2 z m 0.4,-2 v 0.1 l -0.2,0.2 -0.1,-0.1 v -0.1 l 0.1,-0.1 z m 0.4,5.1 0.1,0.1 v 0.1 l -0.1,0.1 H 403 v -0.2 z m 0.3,-3.4 v 0.2 l -0.5,0.1 -0.1,-0.1 v -0.1 l 0.1,-0.1 z m 1,-2.7 0.2,0.2 -0.1,0.1 h -0.1 l -0.2,-0.2 0.1,-0.1 z m -0.3,8.6 h 0.2 l 0.4,0.4 h -0.1 l -0.5,-0.1 z m 1,-13.7 0.1,0.1 v 0.1 l -0.3,0.5 h -0.2 v -0.4 z m -0.2,3.4 0.1,0.1 v 0.1 l -0.1,0.1 h -0.1 l -0.1,-0.1 v -0.1 l 0.1,-0.1 z m 0.4,1.5 c 0.2,0 0.4,0.4 0.4,1 H 406 l -0.4,-0.8 0.1,-0.1 h 0.1 z m 0,7.6 0.1,0.1 v 0.1 l -0.1,0.1 h -0.1 l -0.1,-0.1 v -0.1 l 0.1,-0.1 z m 0.5,-10 h 0.1 l 0.4,0.4 -0.1,0.1 h -0.1 l -0.3,-0.2 z m 0.6,7.2 0.1,0.1 v 0.1 l -0.1,0.1 h -0.1 l -0.1,-0.1 v -0.1 l 0.1,-0.1 z m 0.4,-12.6 0.1,0.1 v 0.1 l -0.1,0.1 H 407 v -0.1 z m 13.9,-3.1 h 0.2 l 0.3,0.2 -0.1,0.1 1.1,0.3 v 0.1 l -0.3,0.4 v 0.1 h 0.5 c 0,-0.2 0.1,-0.4 0.4,-0.4 3.3,0.6 5,1.6 5,2.9 -0.3,0.1 -0.6,0.3 -0.7,0.6 h 0.2 l 1,-0.4 v 0.1 l -0.1,0.1 v 0.1 l 0.4,0.4 -0.1,0.1 h -0.1 l -0.1,-0.1 h -0.1 v 0.4 c 0.6,0 0.8,0.2 0.8,0.7 v 0.1 l -1.7,2.3 h 1.5 v 0.2 h -1.5 c -1.9,0.8 -3.3,2.2 -4.1,4.1 -0.9,0.9 -1.6,1.4 -2.1,1.6 0,0.4 -0.2,0.6 -0.5,0.6 l 0.4,0.6 v 0.1 l -0.2,0.2 h -0.1 l -0.2,-0.2 0.1,-0.1 v -0.1 H 421 c -0.8,0.7 -1.8,1.7 -2.8,2.9 l -2.7,2.7 c 1.3,2 2.9,3 4.7,3 l 1.3,0.2 c 0.1,-0.8 0.2,-1.2 0.4,-1.2 l 0.1,0.1 -0.1,0.6 v 0.5 h 0.8 l 0.4,0.2 0.2,-0.2 h 0.3 c 0.2,0 0.3,0.2 0.5,0.7 h 0.1 c 0,-0.6 0.4,-1 1.2,-1 2.9,-1.4 4.5,-2.9 4.8,-4.5 l -0.1,-0.1 v -0.1 l 0.1,-0.4 h -0.1 c -0.5,-0.6 -1,-0.8 -1.6,-0.8 -0.3,0 -0.7,0.2 -1.1,0.5 h -0.1 v -0.1 c 0.4,-0.8 1,-1.2 1.6,-1.2 h 0.3 l 0.2,0.3 -0.2,0.2 h 0.2 v -0.2 h 0.6 l 0.7,0.6 v 0.4 h -0.2 v 0.1 c 0.4,0 0.6,0.4 0.6,1.1 v 0.6 c 0,0.7 -0.5,1.6 -1.6,2.8 -0.2,0 -0.4,0.2 -0.4,0.5 -0.3,0 -0.5,0.2 -0.5,0.6 l -1.4,1.3 -0.1,-0.5 c -0.4,0 -0.6,0.3 -0.8,1 l -0.1,0.1 h -0.4 c -0.2,0 -0.2,-0.1 -0.2,-0.4 h -0.1 l -0.3,0.2 0.1,0.1 v 0.1 c -0.3,0.1 -0.5,0.3 -0.5,0.7 -1.8,1.2 -3.3,1.8 -4.5,1.8 H 417 c -2.6,0 -4.4,-1 -5.6,-3.1 -1,-1.5 -1.8,-2.4 -2.4,-2.8 -0.6,-1.3 -1,-2.3 -1,-2.9 0.1,0 0.4,-0.3 0.7,-1 l -0.4,-0.4 -0.2,0.2 -0.1,-0.1 V 290 l 0.2,-0.4 v -1.5 l -0.1,-0.6 0.1,-0.1 -0.1,-0.1 H 408 l 0.4,-0.6 v -0.2 c -0.2,0 -0.4,-0.1 -0.4,-0.2 l 0.1,-0.1 h 0.1 l 0.1,0.1 h 0.1 v -0.1 l -0.2,-0.2 0.5,-1 c -1.1,0 -1.6,-0.2 -1.6,-0.4 l 0.1,-0.1 1.5,0.2 0.2,-0.4 -0.2,-0.2 0.8,-0.6 c 0.4,-1.8 1.3,-3.3 2.5,-4.5 1.4,-1.4 3.1,-2.6 5.1,-3.5 l 0.1,0.1 0.4,-0.5 h -0.4 l -0.1,0.1 H 417 v -0.1 c 0,-0.2 0.2,-0.2 0.6,-0.2 0,-0.3 0.1,-0.4 0.3,-0.4 l 1.1,1 0.2,-0.2 0.1,0.1 0.6,-0.2 -0.1,-0.4 h 0.1 l 0.4,-0.1 0.8,0.3 v -0.7 z m -13.7,12.7 0.1,0.1 v 0.1 l -0.1,0.1 h -0.1 l -0.1,-0.1 v -0.1 l 0.1,-0.1 z m 1.3,-4.4 0.1,0.1 v 0.1 l -0.2,0.3 -0.1,-0.1 v -0.1 z m 0.2,0.5 0.1,0.1 v 0.1 l -0.1,0.1 h -0.1 l -0.1,-0.1 v -0.1 l 0.1,-0.1 z m 4.2,-8.4 c 0.3,0 0.5,0.3 0.6,1 l -1.1,1 -0.4,-0.1 c -0.9,0 -1.5,0.4 -1.8,1.2 h -0.1 l -0.4,-0.3 h -0.6 v -0.1 c 0.1,-0.3 0.9,-0.7 2.4,-1.1 l 0.1,-0.1 v -0.1 h -0.5 v -0.2 h 0.6 v 0.2 h 0.1 v -0.2 l -0.1,-0.1 0.4,-0.3 0.4,0.1 c 0,-0.2 0.2,-0.3 0.6,-0.4 v -0.1 c -0.3,0 -0.5,-0.1 -0.5,-0.2 l 0.1,-0.1 h 0.2 z m -3,11.8 0.4,0.4 h 0.5 v -0.1 l -0.1,-0.1 0.1,-0.1 v -0.2 h -0.2 l -0.1,0.1 -0.1,-0.1 h -0.1 z m 0.9,-10.4 0.2,0.4 h -0.2 l -0.2,-0.2 0.1,-0.1 h 0.1 z m 0.3,-8.6 0.1,0.1 v 0.1 l -0.1,0.1 h -0.1 l -0.1,-0.1 v -0.1 l 0.1,-0.1 z m 0.3,6 0.1,0.1 v 0.1 l -0.4,0.3 -0.1,-0.1 v -0.1 z m 0.3,-1.3 h 0.2 v 0.2 l -0.2,0.2 -0.1,-0.1 z m 0.4,1.9 0.1,0.1 v 0.1 l -0.4,0.2 H 412 Z m 0.5,-0.8 v 0.4 l -0.4,0.4 -0.1,-0.1 v -0.1 z m 0.2,24.6 v 0.1 h 0.3 l 0.6,-0.1 v -0.4 h -0.1 c -0.6,0 -0.8,0.2 -0.8,0.4 z m 0.5,-27.3 0.1,0.1 v 0.1 l -0.2,0.3 h -0.3 V 271 Z m -0.2,3.5 0.1,0.1 v 0.1 l -0.1,0.1 h -0.1 l -0.1,-0.1 v -0.1 l 0.1,-0.1 z m -0.2,24.6 v 0.6 l 0.6,-0.1 v 0.2 h 0.2 v -0.2 h -0.2 l 0.1,-0.1 v -0.4 h -0.1 l -0.1,0.1 h -0.1 z m 2.2,-17.9 h -0.6 v 0.4 h 0.2 v 0.1 c -0.3,0 -0.7,1.5 -1.2,4.6 l -0.4,5.1 v 0.1 c 0.4,0.4 0.6,1 0.7,1.6 0.2,0 0.3,0.3 0.4,0.8 h 0.1 l 5.2,-5.1 c 0.3,0 0.5,-0.2 0.7,-0.6 l -0.1,-1.7 h 0.1 l 0.1,0.1 h 0.1 V 285 c -0.2,0 -0.3,-0.2 -0.4,-0.6 l 0.3,-1 V 283 c -0.3,0 -0.5,-0.2 -0.5,-0.6 h -0.6 v -0.2 h 0.7 l -0.1,-0.1 V 282 c 0.3,-0.1 0.5,-0.3 0.5,-0.7 h -0.4 l -0.6,0.1 v -0.3 c 0.5,0 0.8,-0.1 0.8,-0.2 l -0.1,-0.4 h 0.1 l 0.4,-0.2 h 0.4 v 0.1 l -0.2,1.1 h 0.1 l 0.7,-0.1 0.4,0.1 v -0.8 c 0,-0.7 -0.9,-1.4 -2.7,-2.1 h -0.2 c -2,0.4 -3,0.8 -3,1.2 z m -1.3,-9.6 0.1,0.1 v 0.1 l -0.4,0.4 h -0.1 v -0.1 z m 0.2,-8.2 0.2,0.2 -0.1,0.1 h -0.1 l -0.2,-0.2 0.1,-0.1 z m 1,11.4 0.1,0.1 v 0.1 c 0,0.2 -0.4,0.4 -1.2,0.6 v -0.1 l 0.3,-0.5 0.1,0.1 h 0.1 z m -1.2,19.6 v 0.3 l 0.3,0.2 h 0.1 v -0.4 z m 0.2,5.4 v 0.3 h 0.4 v -0.3 z m 0.3,-33.1 0.1,0.1 v 0.1 l -0.1,0.1 h -0.1 l -0.1,-0.1 v -0.1 l 0.1,-0.1 z m -0.2,11.7 0.1,0.1 v 0.1 l -0.1,0.4 h 0.1 l -0.1,0.1 v 0.5 h 0.2 c 0,-0.6 0.2,-1 0.6,-1 l -0.1,-0.6 v -0.1 h 0.2 v -0.1 L 415,277 c -0.2,0 -0.4,0.4 -0.6,1 z m 0.5,13.5 h 0.3 v 0.1 l -0.3,0.2 z m 0,-24.5 h 0.4 v 0.2 h -0.4 z m 0.4,-6.7 0.2,0.5 h -0.1 l -0.4,-0.4 0.1,-0.1 z m 0.6,0.7 0.1,0.1 v 0.1 l -0.2,0.2 -0.2,-0.2 z m -0.4,4.3 h 0.4 v 0.2 h -0.4 z m 0.2,3.4 0.5,0.4 v 0.1 h -0.3 l -0.4,-0.4 z m 0.3,-1.4 0.1,0.1 v 0.1 l -0.2,0.2 -0.1,-0.1 v -0.1 z m 0.2,-2.1 0.5,0.4 h -0.4 l -0.2,-0.2 z m 0.4,12.2 v 0.1 h 0.4 v -0.4 h -0.1 z m 0.2,11.6 0.1,0.1 v 0.1 l -0.1,0.1 h -0.1 l -0.1,-0.1 v -0.1 l 0.1,-0.1 z m -0.1,-23.4 h 0.1 l 0.2,0.2 -0.1,0.1 h -0.1 l -0.1,-0.1 z m 0.3,18.1 0.1,0.1 v 0.1 L 417,284 h -0.1 l -0.1,-0.1 v -0.1 l 0.1,-0.1 z m 0.2,-17.1 0.4,0.5 -0.2,0.2 -0.4,-0.5 z m 0.3,4.4 0.1,0.1 v 0.5 h -0.2 l -0.1,-0.5 0.1,-0.1 z m 0.1,-9.7 0.1,0.1 v 0.1 l -0.2,0.2 -0.1,-0.1 v -0.1 z m 0,3 0.1,0.1 v 0.1 l -0.1,0.1 h -0.2 v -0.1 z m -0.2,19.3 h 0.4 l 0.3,0.2 v 0.1 l -0.5,0.4 -0.1,-0.1 0.1,-0.1 V 284 Z m 0.8,-16.9 0.1,0.1 v 0.1 l -0.1,0.1 h -0.1 -0.1 v -0.1 l 0.1,-0.1 h 0.1 z m -0.2,0.5 c 0.7,0.1 1.1,0.3 1.1,0.5 l -0.1,0.1 h -0.1 c -0.5,-0.2 -0.8,-0.4 -0.8,-0.5 v -0.1 z m 0,8.3 v 0.4 l 0.2,-0.3 v -0.1 z m 1,-14.6 0.4,0.2 0.4,-0.2 0.1,0.1 v 0.1 l -0.1,0.1 v 0.1 l 0.4,0.4 v 0.1 h -0.4 l -0.8,-0.5 h -0.6 v -0.2 z m 0.1,34.9 c 0.2,0 0.2,0.1 0.2,0.4 l 0.5,-0.4 c 0,0.3 0.2,0.4 0.7,0.4 v 0.1 l -0.4,0.1 -0.4,-0.1 -1.1,0.1 -0.3,-0.2 v -0.1 l 0.1,0.1 h 0.5 v -0.4 z m -0.3,-22.5 h 0.2 l 0.2,0.2 -0.2,0.2 z m 0.1,14.4 h 0.1 l 0.1,0.1 0.1,-0.1 h 0.4 v 0.1 l -0.6,0.6 z m 0.1,13.5 v 0.4 h 0.2 v -0.4 z m 0.4,-34.5 v 0.1 l -0.2,0.2 H 419 v -0.1 l 0.1,-0.1 h 0.3 z m -0.1,1.3 0.1,0.1 v 0.1 l -0.1,0.1 h -0.1 l -0.1,-0.1 v -0.1 l 0.1,-0.1 z m -0.2,7.7 v 0.2 h 0.2 l 0.2,-0.2 v -0.1 z m 0.4,-7.9 0.1,0.1 v 0.1 l -0.1,0.1 h -0.1 l -0.1,-0.1 v -0.1 l 0.1,-0.1 z m 0.5,-8.1 0.1,0.1 v 0.1 c 0,0.1 -0.2,0.2 -0.5,0.4 l -0.1,-0.1 V 260 Z m -0.3,29.3 -0.1,0.4 h 0.3 L 420,289 Z m 0.5,-15.1 h 0.4 l 0.4,0.4 h -0.1 l -0.5,-0.1 -0.1,0.5 h -0.1 l -0.1,-0.1 H 420 c 0,-0.5 0.1,-0.7 0.2,-0.7 z m -0.2,17.4 c 0.2,0 0.3,0.3 0.4,0.8 l -0.1,0.1 h -0.1 l -0.1,-0.1 0.1,-0.1 v -0.1 z m 0.1,2 h 0.2 l 0.1,0.7 -0.1,0.1 h -0.1 l -0.2,-0.3 z m 1.8,-22.2 h 0.1 l 0.2,0.2 -0.6,0.5 c 0,0.3 -0.1,0.4 -0.3,0.4 v 0.6 l 0.5,-0.1 0.1,0.1 1.5,-0.1 h 2.2 v 0.2 H 425 l -1.4,0.3 -0.1,-0.1 h -0.1 l -0.7,0.1 -0.8,-0.1 -0.4,0.1 v 0.2 h 0.7 l 0.2,0.2 v 0.1 c -0.4,0 -0.6,0.1 -0.8,0.3 l -0.3,-0.3 v 0.1 c -0.4,-0.1 -0.6,-0.2 -0.6,-0.4 l 0.5,-0.1 v -0.2 h -0.8 v -0.3 h 0.6 c 0.2,0 0.3,-0.5 0.4,-1.4 h 0.1 l 0.1,0.1 c 0.2,0.1 0.3,-0.1 0.3,-0.4 z m -1.2,-8.5 0.1,0.1 v 0.1 l -0.1,0.1 h -0.1 l -0.1,-0.1 v -0.1 l 0.1,-0.1 z m 0,5.8 v 0.4 h -0.2 v -0.1 z m -0.3,3.4 h 0.1 l 0.3,0.3 -0.1,0.1 h -0.1 l -0.1,-0.1 v -0.3 z m 0,10.6 v 0.4 l 0.1,-0.1 h 0.1 l 0.1,0.1 v -0.4 l -0.1,0.1 h -0.1 z m 0.7,-17.4 -0.5,0.5 -0.1,-0.1 v -0.2 z m -0.2,2 0.1,0.1 v 0.1 l -0.1,0.1 h -0.1 l -0.1,-0.1 v -0.1 l 0.1,-0.1 z m -0.2,25.8 h 0.2 v 0.5 h -0.2 z m 0.1,0.8 h 0.1 l 0.4,2.1 -0.1,0.1 0.6,0.1 v 0.3 l -0.2,0.2 -0.4,-0.1 0.2,0.4 -0.2,0.3 v 0.7 H 421 l -0.2,-1.4 0.2,-0.3 v -0.1 l -0.1,-0.1 0.1,-0.1 V 295 h -0.2 z m 0.3,-10.8 -0.1,0.6 c 0.2,0 0.4,0.1 0.4,0.2 h 0.3 l 0.6,-0.1 v 0.2 c -0.3,0 -0.5,0.1 -0.5,0.3 v 0.1 h 0.2 v 0.2 h -0.7 v 0.5 c 0,0.9 -0.1,1.6 -0.2,1.9 v 0.1 h 0.1 c 1,-1.4 1.5,-2.6 1.5,-3.5 v -0.7 l -0.1,0.1 h -1.5 z m -0.2,7.7 h 0.2 l 0.1,0.6 h -0.1 l -0.2,-0.2 z m 0.7,-32 h 0.4 v 0.2 l -0.9,0.1 v -0.2 z m -0.5,23.3 v 0.8 l 1.5,-0.2 -0.1,-0.6 -1.2,0.1 z m 0.3,-21.8 h 0.1 c 0.1,0 0.2,0.2 0.4,0.5 l -0.1,0.1 h -0.1 l -0.2,-0.4 V 260 Z m 0.4,23.1 h 0.1 v 0.2 h -0.4 z m 0.3,-9 0.1,0.1 v 0.1 l -0.1,0.1 H 422 l -0.1,-0.1 v -0.1 l 0.1,-0.1 z m 0.1,-8 0.1,0.1 v 0.2 l -0.2,0.2 -0.1,-0.1 v -0.1 l 0.1,-0.1 -0.1,-0.1 0.1,-0.1 z m 0.1,0.7 v 0.3 l -0.2,0.2 -0.1,-0.1 v -0.1 z m -0.2,4.8 h 0.4 l -0.3,0.2 h -0.1 z m 0.4,26 v 0.1 l -0.3,0.3 h -0.1 v -0.3 z m 0.3,-37.1 0.1,0.1 h 0.9 l 0.1,-0.1 h 0.1 l 0.1,0.1 v 0.4 l -0.4,0.4 h -0.4 v -0.2 h 0.4 V 261 h -0.4 l -1.2,0.1 v -0.2 c 0.5,-0.1 0.7,-0.2 0.7,-0.4 z m -0.3,4.4 0.2,0.6 h -0.2 l -0.2,-0.5 0.1,-0.1 z m 0.3,5.8 0.1,0.1 v 0.1 l -0.1,0.1 h -0.1 l -0.1,-0.1 v -0.1 l 0.1,-0.1 z m 0.7,-11.5 0.1,0.1 v 0.2 h -0.1 l -0.2,-0.2 0.1,-0.1 z m -0.2,9.2 h 0.4 l -0.2,0.2 -0.1,-0.1 v -0.1 z m 1,2.7 0.5,0.5 -0.1,0.1 h -0.1 l -0.4,-0.1 -0.4,0.1 -0.1,-0.1 v -0.1 z m 0.4,-4.7 0.4,0.1 v 0.2 H 424 v -0.2 z m -0.3,-6.5 0.1,0.1 v 0.1 l -0.1,0.1 h -0.1 l -0.1,-0.1 V 260 l 0.1,-0.1 z m 0.1,3.7 0.1,0.1 v 0.1 l -0.4,0.2 -0.1,-0.1 v -0.1 z m 0,13.8 v 0.3 l 0.2,0.2 h 0.2 v -0.2 l -0.2,-0.3 z m 0.4,-16.3 0.1,0.1 v 0.1 l -0.1,0.1 h -0.1 l -0.1,-0.1 v -0.1 l 0.1,-0.1 z m 0.6,4.6 v 0.2 l -0.5,0.1 -0.1,-0.1 v -0.1 l 0.1,-0.1 z m 0.3,-5.1 0.2,0.4 -0.2,0.2 h -0.1 l -0.1,-0.1 h -0.1 z m -0.1,0.7 0.1,0.1 v 0.4 h -0.1 l -0.2,-0.2 z m 0.7,6.7 0.4,0.6 -0.1,0.1 h -0.1 l -0.4,-0.5 z m -0.1,13.1 v 0.4 l 1,-0.2 v -0.4 h -0.5 z m 0.5,-14.4 h 0.3 l 0.1,0.4 -0.8,0.4 -0.1,-0.1 v -0.1 c 0.3,-0.2 0.5,-0.3 0.5,-0.6 z m -0.1,-0.1 0.1,0.1 v 0.1 l -0.1,0.1 h -0.1 l -0.1,-0.1 v -0.1 l 0.1,-0.1 z m -0.2,32 v 0.4 h 0.2 v -0.4 z m 0.4,-10.3 h 0.4 l -0.2,0.5 -0.4,-0.1 v -0.1 z m 0.6,-21.8 h 0.1 v 0.2 l -0.2,0.2 -0.1,-0.1 v -0.1 z m 0.4,-6.3 0.1,0.1 v 0.1 l -0.1,0.1 h -0.1 l -0.1,-0.1 v -0.1 l 0.1,-0.1 z m 1,11 h 0.2 l 0.4,1 h -0.1 l -0.5,-0.6 z m 0.4,-3 h 0.2 v 0.8 l -0.2,0.3 -0.1,-0.1 0.1,-0.1 z m 0.7,-0.5 0.1,0.1 v 0.1 c -0.1,0.4 -0.2,0.6 -0.4,0.6 h -0.1 c 0.2,-0.6 0.3,-0.8 0.4,-0.8 z m 0.9,4.4 0.2,0.5 -0.4,0.2 -0.1,-0.1 v -0.4 z m 0,-5.5 0.1,0.1 v 0.3 h -0.1 l -0.2,-0.3 0.1,-0.1 z"
   id="path26" />
	<path
   class="st0"
   d="m 449.4,274.6 h 0.7 c 2.1,0 3.2,1.8 3.2,5.3 v 0.5 l -0.5,1.2 h 0.4 l -0.1,0.1 v 0.1 l 0.2,0.2 v 2.6 l -0.1,0.4 0.1,0.6 v 8.9 c 0,2.2 0.5,3.3 1.5,3.3 0.7,0 1.3,-0.5 1.6,-1.6 0,-0.3 -0.2,-0.5 -0.6,-0.7 l -0.8,0.6 -0.1,-0.1 v -0.1 c 0.3,-0.4 0.5,-0.8 0.8,-0.9 h 0.8 c 0.5,0 1,0.3 1.3,0.9 v 0.7 c 0,0.4 -0.2,0.7 -0.7,0.8 0,0.8 -0.4,1.2 -1.1,1.2 V 298 h -0.1 v 0.4 c 0,0.2 0.1,0.4 0.4,0.4 v 0.2 c 0,0.2 -0.1,0.2 -0.4,0.2 v 0.2 h 0.2 v 0.2 c -0.5,0 -1,0.2 -1.5,0.7 l -0.1,-0.4 -0.1,0.1 h -0.1 l 0.1,0.1 v 0.1 l -0.2,0.2 -0.4,-0.1 v 0.1 c 0,0.2 -0.1,0.4 -0.2,0.4 h -0.5 l -0.4,-0.2 h -0.1 l 0.1,0.1 c 0,0.9 -0.4,1.3 -1.3,1.3 -2.1,-0.6 -3.2,-1.3 -3.2,-1.9 h -0.1 l -0.4,0.4 0.1,0.1 v 0.1 h -0.1 l -0.4,-0.1 v 0.1 c 0,0.2 -0.3,0.4 -0.8,0.7 v 0.2 h -0.2 v -0.4 c 0.4,-0.4 0.6,-0.8 0.6,-1.1 h 0.1 l 0.1,0.1 h 0.1 c 0,-0.3 0.2,-0.6 0.6,-0.8 -0.3,-0.7 -0.5,-1.7 -0.5,-3 l 0.2,-2.6 -0.2,-0.6 0.5,-2.9 c -0.2,-2.7 -0.3,-4.2 -0.5,-4.6 l 0.1,-0.9 c 0,-3 -0.4,-4.6 -1.2,-4.6 -0.3,-0.2 -0.6,-0.3 -1.1,-0.4 -2,0.8 -4.3,3.1 -6.7,7.1 l -0.5,2.2 0.2,0.9 v 1.2 l -0.2,0.4 0.1,0.1 -0.1,0.6 v 1.5 l 0.4,2 v 0.6 c 0,1.9 -0.5,3 -1.5,3.4 l -3.5,2.3 -0.7,0.1 -0.1,-0.1 0.2,-3.3 h 0.4 v 0.2 l -0.4,-0.1 -0.1,-2.7 0.2,-2 -0.1,-0.9 0.2,-2.8 c -0.2,0 -0.3,-1.5 -0.4,-4.6 h 0.1 l -0.1,-0.4 c 0.2,-0.2 0.2,-0.7 0.2,-1.5 h 0.1 l -0.2,-1.2 0.1,-0.5 v -0.6 c -0.5,-1.3 -1.3,-2 -2.2,-2 -1.3,0.5 -2,1 -2,1.6 h 0.1 l 0.4,-0.2 0.1,0.1 v 0.1 c -0.1,0.2 -0.3,0.4 -0.7,0.4 -0.2,0 -0.3,-0.2 -0.4,-0.5 0,-0.7 1.1,-1.9 3.4,-3.5 l 1.5,-1.8 c 0.6,-0.6 1.1,-0.9 1.5,-0.9 l 0.7,0.2 v 0.1 l -0.1,0.1 v 0.1 l 0.1,0.1 h 0.5 v -0.1 c -0.2,0 -0.4,-0.1 -0.4,-0.2 l 0.6,-0.1 h 0.5 c 0.7,0 1.2,0.6 1.4,1.8 0.3,0 0.5,1.3 0.5,3.8 v 3.9 l 3.2,-4.1 2.6,-3.3 c 0.2,-0.1 0.7,-0.6 1.5,-1.5 0.5,-0.4 1.2,-0.6 1.9,-0.7 0.3,-0.3 0.9,-0.4 2,-0.5 z m -17.6,13 v 0.1 l -0.2,0.2 -0.1,-0.1 v -0.1 l 0.1,-0.1 z m 0,-13.2 0.1,0.1 v 0.1 l -0.2,0.2 -0.1,-0.1 v -0.1 z m 1.8,24.5 v 0.6 l -0.2,0.4 v 0.2 h 0.4 c 0.3,-0.2 0.5,-0.4 0.7,-0.4 v -0.2 l -0.2,-0.2 -0.1,0.1 h -0.1 l -0.1,-0.5 z m 0.1,-20.3 v 0.4 l 0.2,0.2 h 0.1 l -0.1,-0.6 z m 0.9,7 v 0.1 h 0.4 v -0.4 h -0.1 z m 1.1,-12.7 v 0.1 l -0.2,0.2 -0.1,-0.1 V 273 l 0.1,-0.1 z m 0.1,-3.2 0.1,0.1 v 0.1 l -0.1,0.1 h -0.1 l -0.1,-0.1 v -0.1 l 0.1,-0.1 z m 0.3,9.1 v 0.2 h 0.4 v -0.2 z m 1,10.3 0.5,0.1 0.1,-0.1 V 289 l -0.1,-0.7 v -0.1 h 0.2 v -0.4 c -0.5,0 -0.7,0.3 -0.7,0.8 l -0.1,0.1 z m 0.7,-26 0.1,0.1 v 0.1 l -0.1,0.1 h -0.1 l -0.1,-0.1 v -0.1 l 0.1,-0.1 z m 0.2,-1 0.2,0.2 -0.1,0.1 h -0.4 v -0.1 z m -0.2,3 h 0.4 v 0.2 h -0.4 z m 0.9,11.9 h 0.2 v 0.4 h -0.2 z m 0.3,7.7 v 0.4 h 0.1 l 0.1,-0.1 0.1,0.1 h 0.2 V 285 l -0.1,-0.1 v -0.1 l 0.1,-0.4 h -0.2 z m 0.3,-12.8 h 0.2 v 0.6 l -0.2,0.2 -0.1,-0.1 z m 0.9,-5.4 h 0.2 v 0.2 l -0.7,0.8 -0.1,-0.1 z m -0.3,9.3 0.1,0.1 v 0.1 l -0.1,0.1 h -0.1 l -0.1,-0.1 v -0.1 l 0.1,-0.1 z m 0.1,-1.3 0.1,0.1 v 0.9 h -0.2 v -0.4 l -0.1,-0.6 0.1,-0.1 h 0.1 z m -0.2,4.4 h 0.2 v 0.4 h -0.2 z m 0.1,1 h 0.2 v 0.4 l 0.1,-0.1 h 0.1 l 0.2,0.2 -0.4,0.2 -0.4,-0.4 v -0.3 z m 0.4,-9.3 0.2,0.2 -0.4,0.2 -0.1,-0.1 v -0.1 z m 1.5,-7.8 0.1,0.1 v 0.1 l -0.1,0.1 h -0.1 l -0.1,-0.1 v 0 l 0.1,-0.1 h 0.1 z m 0.2,7.3 0.1,0.1 v 0.2 l -0.2,0.2 -0.1,-0.1 v -0.2 z m 0.4,3.8 0.1,0.1 v 0.4 h -0.2 l -0.1,-0.4 0.1,-0.1 z m 0.5,5.4 v 0.2 h 0.4 v -0.2 z m 0.4,4.9 v 0.1 l -0.2,0.2 -0.1,-0.1 v -0.1 l 0.1,-0.1 z m 0.9,-5.6 c 0,0.2 -0.2,0.5 -0.5,0.9 h 0.2 l 0.4,-0.4 v -0.6 h -0.1 z m 0,-0.4 v 0.2 h 0.4 v -0.2 z m 1.2,11.5 0.1,0.1 v 0.2 l -0.2,0.2 -0.1,-0.1 V 290 Z m 2.8,4.7 h 0.4 l 0.4,-0.6 v -0.4 h -0.1 c -0.5,0.3 -0.7,0.6 -0.7,1 z m 0.5,-17.6 v 0.1 h 0.5 l 0.6,-0.2 v -0.2 h -0.4 c -0.5,0 -0.7,0.1 -0.7,0.3 z m 1,5.1 v 0.2 h 0.4 v -0.2 z m 1.6,21.3 v 0.2 l -0.5,0.1 -0.1,-0.1 v -0.1 l 0.1,-0.1 z m 0,-13.1 v 0.5 h 0.2 l 0.2,-0.5 V 290 h -0.1 z m 2,12 0.1,0.1 v 0.1 l -0.1,0.1 h -0.1 l -0.1,-0.1 v -0.1 l 0.1,-0.1 z m 0.3,-0.4 0.1,0.1 v 0.1 l -0.1,0.1 h -0.1 l -0.1,-0.1 v -0.1 l 0.1,-0.1 z m 1.3,-21.2 0.1,0.1 v 0.1 l -0.1,0.1 h -0.1 l -0.1,-0.1 v -0.1 l 0.1,-0.1 z m 0.1,2.1 h 0.2 v 0.4 l -0.2,-0.2 z"
   id="path28" />
</g>
</svg>
